<?xml version="1.0" encoding="UTF-8"?>
<svg version="1.1" xmlns="http://www.w3.org/2000/svg" width="256" height="256">
<path d="M0 0 C63.36 0 126.72 0 192 0 C192 84.48 192 168.96 192 256 C128.64 256 65.28 256 0 256 C0 171.52 0 87.04 0 0 Z " fill="#FEFEFE" transform="translate(32,0)"/>
<path d="M0 0 C6.16044164 3.87227761 8.7691198 10.30735941 11 17 C11.99 16.34 12.98 15.68 14 15 C16.26171875 14.8046875 16.26171875 14.8046875 18.6875 14.875 C19.89986328 14.90207031 19.89986328 14.90207031 21.13671875 14.9296875 C22.05904297 14.96449219 22.05904297 14.96449219 23 15 C23.43031995 23.03263912 21.89911296 28.59404244 17 35 C17.87229248 35.00616333 17.87229248 35.00616333 18.76220703 35.01245117 C56.74844704 35.47696692 56.74844704 35.47696692 67.875 45.3125 C69.2673519 46.85955767 70.64349128 48.42141983 72 50 C72.76699219 50.61617187 73.53398437 51.23234375 74.32421875 51.8671875 C77.98269298 54.84249115 79.766327 56.74099818 80.64453125 61.47265625 C80.79391614 63.92104923 80.87254326 66.37518486 80.8671875 68.828125 C81.0024 72.05731753 81.60230237 73.2062592 83 76 C83.41064453 78.02709961 83.41064453 78.02709961 83.6328125 80.15234375 C83.71660156 80.92900391 83.80039063 81.70566406 83.88671875 82.50585938 C83.96535156 83.30830078 84.04398438 84.11074219 84.125 84.9375 C84.25455078 86.13536133 84.25455078 86.13536133 84.38671875 87.35742188 C84.79353071 91.25442214 85.10749815 95.07631758 85 99 C84.90754997 100.46225016 84.90754997 100.46225016 87 103 C88.06073044 105.05276073 89.1005759 107.11638171 90.125 109.1875 C90.66382813 110.27417969 91.20265625 111.36085938 91.7578125 112.48046875 C92.16773438 113.31191406 92.57765625 114.14335937 93 115 C90.525 115.99 90.525 115.99 88 117 C88.2165625 117.90492188 88.2165625 117.90492188 88.4375 118.828125 C88.623125 119.62734375 88.80875 120.4265625 89 121.25 C89.185625 122.03890625 89.37125 122.8278125 89.5625 123.640625 C90 126 90 126 90 130 C86.52674819 131.1577506 83.63932552 131.06866652 80 131 C79.01 127.535 79.01 127.535 78 124 C77.67 124 77.34 124 77 124 C76.84144531 124.80824219 76.68289062 125.61648437 76.51953125 126.44921875 C74.29910744 136.61900515 70.45451441 140.21438282 61.98828125 145.86328125 C60 147 60 147 58 147 C58.64195312 147.52078125 59.28390625 148.0415625 59.9453125 148.578125 C62.60135481 151.70882126 62.65311549 153.6850757 62.875 157.75 C62.99488281 159.50570312 62.99488281 159.50570312 63.1171875 161.296875 C63.01192927 164.62303507 62.42266118 167.28702695 61.54345703 170.46923828 C60.08901193 177.24227417 59.88432747 184.34204818 59.32275391 191.23950195 C59.14791143 193.35940706 58.96478869 195.47848907 58.78125 197.59765625 C58.6275293 199.47723022 58.6275293 199.47723022 58.47070312 201.39477539 C57.24104578 210.81300674 57.24104578 210.81300674 53.7578125 214.14453125 C52.88898438 214.69496094 52.02015625 215.24539062 51.125 215.8125 C50.26132813 216.37582031 49.39765625 216.93914062 48.5078125 217.51953125 C47.26644531 218.25236328 47.26644531 218.25236328 46 219 C45.45166504 219.35505615 44.90333008 219.7101123 44.33837891 220.07592773 C40.96026636 221.41087824 37.65647669 221.28524177 34.078125 221.265625 C33.30047791 221.26753845 32.52283081 221.2694519 31.72161865 221.27142334 C30.07075681 221.2727837 28.41988422 221.26909762 26.76904297 221.26074219 C24.30019491 221.25021405 21.83210404 221.26055065 19.36328125 221.2734375 C-10.28236424 221.29895507 -10.28236424 221.29895507 -19 216 C-22.62672237 210.20787197 -22.65644566 202.55718243 -23.27734375 195.94140625 C-23.51582031 194.97074219 -23.75429687 194.00007812 -24 193 C-25.78652058 191.86364443 -25.78652058 191.86364443 -28 191 C-29.76797255 189.15836193 -31.39352089 187.34695993 -33 185.375 C-33.66092651 184.56639526 -33.66092651 184.56639526 -34.33520508 183.74145508 C-38.40596996 178.65508635 -41.81518001 174.32675983 -42.1875 167.625 C-40.11119931 161.28681894 -37.16159924 155.65930913 -31.08984375 152.47265625 C-28.40958955 151.50084795 -25.76963567 150.67112329 -23 150 C-23.6290625 149.84144531 -24.258125 149.68289062 -24.90625 149.51953125 C-35.26498376 146.69584027 -42.85511208 142.01340861 -49 133 C-52.40595888 125.81495753 -54.84939641 117.70670892 -52.31640625 109.890625 C-51.62073839 108.22634782 -50.82033685 106.606493 -50 105 C-51.32 104.67 -52.64 104.34 -54 104 C-53.835 102.845 -53.67 101.69 -53.5 100.5 C-52.96761689 96.30092197 -52.92447554 92.22936959 -53 88 C-51.35 88.33 -49.7 88.66 -48 89 C-48.01047363 88.05157227 -48.02094727 87.10314453 -48.03173828 86.12597656 C-48.06586708 82.59991009 -48.09092168 79.07401971 -48.10986328 75.54785156 C-48.11990744 74.02308377 -48.13354531 72.49833516 -48.15087891 70.97363281 C-48.17519738 68.77924862 -48.18649889 66.58511958 -48.1953125 64.390625 C-48.20578613 63.07094727 -48.21625977 61.75126953 -48.22705078 60.39160156 C-48.01456122 57.2175102 -47.60833606 55.65950553 -46 53 C-45.66241787 50.9724757 -45.66241787 50.9724757 -45.5625 48.9375 C-45 45 -45 45 -43.9296875 43.37890625 C-41.06671032 41.33309462 -37.94403766 40.73526768 -34.5625 40 C-33.46240601 39.75008301 -33.46240601 39.75008301 -32.34008789 39.49511719 C-23.30770674 37.51712688 -14.15631056 36.249879 -5 35 C-5.48339844 34.15695313 -5.96679688 33.31390625 -6.46484375 32.4453125 C-9.55345661 25.51361647 -9.25752008 17.51874883 -6.72265625 10.42578125 C-4.81623657 6.56166898 -3.06001756 3.06001756 0 0 Z " fill="#FCCF66" transform="translate(115,19)"/>
<path d="M0 0 C6.16044164 3.87227761 8.7691198 10.30735941 11 17 C11.99 16.34 12.98 15.68 14 15 C16.26171875 14.8046875 16.26171875 14.8046875 18.6875 14.875 C19.89986328 14.90207031 19.89986328 14.90207031 21.13671875 14.9296875 C22.05904297 14.96449219 22.05904297 14.96449219 23 15 C23.43031995 23.03263912 21.89911296 28.59404244 17 35 C17.87229248 35.00616333 17.87229248 35.00616333 18.76220703 35.01245117 C56.74844704 35.47696692 56.74844704 35.47696692 67.875 45.3125 C69.2673519 46.85955767 70.64349128 48.42141983 72 50 C72.76699219 50.61617187 73.53398437 51.23234375 74.32421875 51.8671875 C77.98269298 54.84249115 79.766327 56.74099818 80.64453125 61.47265625 C80.79391614 63.92104923 80.87254326 66.37518486 80.8671875 68.828125 C81.0024 72.05731753 81.60230237 73.2062592 83 76 C83.41064453 78.02709961 83.41064453 78.02709961 83.6328125 80.15234375 C83.71660156 80.92900391 83.80039063 81.70566406 83.88671875 82.50585938 C83.96535156 83.30830078 84.04398438 84.11074219 84.125 84.9375 C84.25455078 86.13536133 84.25455078 86.13536133 84.38671875 87.35742188 C84.79353071 91.25442214 85.10749815 95.07631758 85 99 C84.90754997 100.46225016 84.90754997 100.46225016 87 103 C88.06073044 105.05276073 89.1005759 107.11638171 90.125 109.1875 C90.66382813 110.27417969 91.20265625 111.36085938 91.7578125 112.48046875 C92.16773438 113.31191406 92.57765625 114.14335937 93 115 C90.525 115.99 90.525 115.99 88 117 C88.2165625 117.90492188 88.2165625 117.90492188 88.4375 118.828125 C88.623125 119.62734375 88.80875 120.4265625 89 121.25 C89.185625 122.03890625 89.37125 122.8278125 89.5625 123.640625 C90 126 90 126 90 130 C86.52674819 131.1577506 83.63932552 131.06866652 80 131 C79.01 127.535 79.01 127.535 78 124 C77.67 124 77.34 124 77 124 C76.84144531 124.80824219 76.68289062 125.61648437 76.51953125 126.44921875 C74.29910744 136.61900515 70.45451441 140.21438282 61.98828125 145.86328125 C60 147 60 147 58 147 C58.64195312 147.52078125 59.28390625 148.0415625 59.9453125 148.578125 C62.60135481 151.70882126 62.65311549 153.6850757 62.875 157.75 C62.99488281 159.50570312 62.99488281 159.50570312 63.1171875 161.296875 C63.01192927 164.62303507 62.42266118 167.28702695 61.54345703 170.46923828 C60.08901193 177.24227417 59.88432747 184.34204818 59.32275391 191.23950195 C59.14791143 193.35940706 58.96478869 195.47848907 58.78125 197.59765625 C58.6275293 199.47723022 58.6275293 199.47723022 58.47070312 201.39477539 C57.24104578 210.81300674 57.24104578 210.81300674 53.7578125 214.14453125 C52.88898438 214.69496094 52.02015625 215.24539062 51.125 215.8125 C50.26132813 216.37582031 49.39765625 216.93914062 48.5078125 217.51953125 C47.26644531 218.25236328 47.26644531 218.25236328 46 219 C45.45166504 219.35505615 44.90333008 219.7101123 44.33837891 220.07592773 C40.96026636 221.41087824 37.65647669 221.28524177 34.078125 221.265625 C33.30047791 221.26753845 32.52283081 221.2694519 31.72161865 221.27142334 C30.07075681 221.2727837 28.41988422 221.26909762 26.76904297 221.26074219 C24.30019491 221.25021405 21.83210404 221.26055065 19.36328125 221.2734375 C-10.28236424 221.29895507 -10.28236424 221.29895507 -19 216 C-22.62672237 210.20787197 -22.65644566 202.55718243 -23.27734375 195.94140625 C-23.51582031 194.97074219 -23.75429687 194.00007812 -24 193 C-25.78652058 191.86364443 -25.78652058 191.86364443 -28 191 C-29.76797255 189.15836193 -31.39352089 187.34695993 -33 185.375 C-33.66092651 184.56639526 -33.66092651 184.56639526 -34.33520508 183.74145508 C-38.40596996 178.65508635 -41.81518001 174.32675983 -42.1875 167.625 C-40.11119931 161.28681894 -37.16159924 155.65930913 -31.08984375 152.47265625 C-28.40958955 151.50084795 -25.76963567 150.67112329 -23 150 C-23.6290625 149.84144531 -24.258125 149.68289062 -24.90625 149.51953125 C-35.26498376 146.69584027 -42.85511208 142.01340861 -49 133 C-52.40595888 125.81495753 -54.84939641 117.70670892 -52.31640625 109.890625 C-51.62073839 108.22634782 -50.82033685 106.606493 -50 105 C-51.32 104.67 -52.64 104.34 -54 104 C-53.835 102.845 -53.67 101.69 -53.5 100.5 C-52.96761689 96.30092197 -52.92447554 92.22936959 -53 88 C-51.35 88.33 -49.7 88.66 -48 89 C-48.01047363 88.05157227 -48.02094727 87.10314453 -48.03173828 86.12597656 C-48.06586708 82.59991009 -48.09092168 79.07401971 -48.10986328 75.54785156 C-48.11990744 74.02308377 -48.13354531 72.49833516 -48.15087891 70.97363281 C-48.17519738 68.77924862 -48.18649889 66.58511958 -48.1953125 64.390625 C-48.20578613 63.07094727 -48.21625977 61.75126953 -48.22705078 60.39160156 C-48.01456122 57.2175102 -47.60833606 55.65950553 -46 53 C-45.66241787 50.9724757 -45.66241787 50.9724757 -45.5625 48.9375 C-45 45 -45 45 -43.9296875 43.37890625 C-41.06671032 41.33309462 -37.94403766 40.73526768 -34.5625 40 C-33.46240601 39.75008301 -33.46240601 39.75008301 -32.34008789 39.49511719 C-23.30770674 37.51712688 -14.15631056 36.249879 -5 35 C-5.48339844 34.15695313 -5.96679688 33.31390625 -6.46484375 32.4453125 C-9.55345661 25.51361647 -9.25752008 17.51874883 -6.72265625 10.42578125 C-4.81623657 6.56166898 -3.06001756 3.06001756 0 0 Z M-28 40.9375 C-28.69738281 41.09412109 -29.39476563 41.25074219 -30.11328125 41.41210938 C-34.41042616 42.4277246 -38.22833875 43.68163942 -42 46 C-42.97474816 49.08961458 -42.97474816 49.08961458 -43 52 C-39.7 51.67 -36.4 51.34 -33 51 C-35.50651042 51.42317708 -38.01302083 51.84635417 -40.51953125 52.26953125 C-43.25752509 53.0758381 -44.31645783 53.72164167 -46 56 C-47.03954 58.89756839 -47.13512183 61.62564623 -47.125 64.6875 C-47.12757812 65.47511719 -47.13015625 66.26273438 -47.1328125 67.07421875 C-47.21127778 69.00764914 -47.21127778 69.00764914 -46 70 C-45.98332326 71.63713147 -46.03700518 73.27510069 -46.12109375 74.91015625 C-46.16943359 75.89951172 -46.21777344 76.88886719 -46.26757812 77.90820312 C-46.32365234 78.94912109 -46.37972656 79.99003906 -46.4375 81.0625 C-46.48970703 82.10728516 -46.54191406 83.15207031 -46.59570312 84.22851562 C-46.72583296 86.81928236 -46.86081158 89.40970666 -47 92 C-47.66 91.34 -48.32 90.68 -49 90 C-49.99 90 -50.98 90 -52 90 C-51.835 91.11375 -51.67 92.2275 -51.5 93.375 C-50.94840018 97.37409869 -51.17513615 100.08189672 -52 104 C-51.01 104.33 -50.02 104.66 -49 105 C-49.33 105.99 -49.66 106.98 -50 108 C-50.83547623 119.29947359 -50.03639617 128.35439546 -42.6875 137.375 C-36.24508402 144.15864564 -27.97777135 147.51870536 -18.66601562 148.26843262 C-14.82731765 148.36203723 -10.99530475 148.36480895 -7.15625 148.328125 C-5.73718467 148.32505806 -4.3181163 148.32318906 -2.89904785 148.32244873 C0.05944551 148.31787478 3.01766227 148.30356447 5.97607422 148.28125 C9.74141128 148.25297055 13.50653182 148.24203421 17.27196503 148.2375679 C20.90008702 148.23237769 24.52815662 148.21787484 28.15625 148.203125 C29.1731617 148.20030392 29.1731617 148.20030392 30.21061707 148.19742584 C43.436769 148.79951866 43.436769 148.79951866 55.875 145.4375 C61.35065935 139.15659662 63.16202505 132.51183302 63.0625 124.3125 C63.05798828 123.61060547 63.05347656 122.90871094 63.04882812 122.18554688 C63.03706927 120.45699462 63.01913454 118.72848635 63 117 C65.55270112 124.65810335 63.88750133 131.38259227 60.875 138.65234375 C59.82537838 141.05094653 59.82537838 141.05094653 60 144 C61.78448946 143.00323084 63.55217232 141.97634448 65.3125 140.9375 C66.29863281 140.36902344 67.28476563 139.80054688 68.30078125 139.21484375 C73.42789143 135.00779386 74.35347684 129.40240609 75.0625 123.0625 C75.13774902 122.39863281 75.21299805 121.73476562 75.29052734 121.05078125 C76.00001575 114.54396801 76.56279364 108.02089665 77.125 101.5 C77.21273682 100.48558838 77.30047363 99.47117676 77.39086914 98.42602539 C77.54877759 96.49590926 77.69195858 94.56451538 77.81835938 92.63208008 C77.93237695 90.97989804 78.08434129 89.32944429 78.29101562 87.6862793 C78.57602301 85.3469019 78.57602301 85.3469019 78 82 C75.68119729 79.73504926 73.9766718 78.40174512 71.25 76.8125 C70.56550781 76.39033203 69.88101563 75.96816406 69.17578125 75.53320312 C58.42826826 69.05867714 48.5128863 66.05711843 36 65 C34.5766333 64.87189941 34.5766333 64.87189941 33.12451172 64.74121094 C8.05400149 62.62129205 -17.20288369 63.73454648 -42 68 C-40.92618483 66.22337883 -39.840542 64.45390311 -38.75 62.6875 C-37.84507813 61.20830078 -37.84507813 61.20830078 -36.921875 59.69921875 C-35.1084027 57.1522485 -33.6569118 55.60841975 -31 54 C-30.34 54 -29.68 54 -29 54 C-29.54269531 54.45890625 -30.08539063 54.9178125 -30.64453125 55.390625 C-31.35996094 56.00421875 -32.07539062 56.6178125 -32.8125 57.25 C-33.52019531 57.85328125 -34.22789063 58.4565625 -34.95703125 59.078125 C-36.91889671 60.92370398 -38.45669625 62.79945332 -40 65 C-39.67 65.66 -39.34 66.32 -39 67 C-38.40832031 66.32453125 -37.81664062 65.6490625 -37.20703125 64.953125 C-36.41683594 64.06109375 -35.62664062 63.1690625 -34.8125 62.25 C-34.03519531 61.36828125 -33.25789063 60.4865625 -32.45703125 59.578125 C-31.64621094 58.72734375 -30.83539063 57.8765625 -30 57 C-28.98486328 55.90945312 -28.98486328 55.90945312 -27.94921875 54.796875 C-18.26928879 48.89916933 -4.19074407 50.62766127 6.77734375 50.62939453 C9.83391647 50.62505828 12.88899748 50.58875096 15.9453125 50.55078125 C35.92466634 50.43648807 58.23259557 51.13526714 73.25 65.875 C74.51600304 67.23527986 75.77238254 68.60498016 77 70 C77.33 68.68 77.66 67.36 78 66 C75.36 63.69 72.72 61.38 70 59 C70.94875 59.639375 71.8975 60.27875 72.875 60.9375 C75.75287827 62.92620563 75.75287827 62.92620563 78 64 C78.39661146 60.21566561 78.38364077 58.52278916 76.09375 55.40234375 C58.69122374 38.86470207 37.47027559 36.60248516 14.11108398 36.73925781 C11.93510209 36.75001185 9.75994213 36.73926597 7.58398438 36.7265625 C-4.51564167 36.71366894 -16.22037957 38.10082158 -28 40.9375 Z " fill="#E94B53" transform="translate(115,19)"/>
<path d="M0 0 C4.90635365 0.42951244 8.51711535 1.73939942 12.8125 4.125 C12.32671457 7.24790635 11.8138988 10.12080359 10.8125 13.125 C11.8025 11.145 12.7925 9.165 13.8125 7.125 C16.8125 8.125 16.8125 8.125 18.21484375 10.69921875 C19.01122296 15.26408522 17.51472148 18.03316985 15.375 21.9375 C14.81510376 23.00025146 14.81510376 23.00025146 14.24389648 24.08447266 C11.28132091 29.57193486 7.94410074 34.44605045 3.8125 39.125 C3.14734375 39.93195313 2.4821875 40.73890625 1.796875 41.5703125 C-4.96569009 49.5248405 -15.13032983 60.19787357 -26.0390625 61.453125 C-26.95429688 61.42734375 -27.86953125 61.4015625 -28.8125 61.375 C-29.73289063 61.35953125 -30.65328125 61.3440625 -31.6015625 61.328125 C-33.94837025 61.14378361 -35.96858806 60.9060968 -38.1875 60.125 C-39.4375 58.0625 -39.4375 58.0625 -40.1875 56.125 C-40.5175 56.455 -40.8475 56.785 -41.1875 57.125 C-42.86933948 57.35787008 -44.5587416 57.53764166 -46.25 57.6875 C-47.16910156 57.77128906 -48.08820313 57.85507813 -49.03515625 57.94140625 C-49.74542969 58.00199219 -50.45570312 58.06257813 -51.1875 58.125 C-50.41664062 58.17398438 -49.64578125 58.22296875 -48.8515625 58.2734375 C-47.84867188 58.34820312 -46.84578125 58.42296875 -45.8125 58.5 C-44.31589844 58.60441406 -44.31589844 58.60441406 -42.7890625 58.7109375 C-40.1875 59.125 -40.1875 59.125 -38.1875 61.125 C-35.33472446 61.32396281 -32.60082628 61.40324931 -29.75 61.375 C-28.97333984 61.38273437 -28.19667969 61.39046875 -27.39648438 61.3984375 C-23.48697832 61.38496806 -21.50802968 61.33868645 -18.1875 59.125 C-15.43332682 58.82433846 -12.76104853 58.61574701 -10 58.5 C-8.87561523 58.44199219 -8.87561523 58.44199219 -7.72851562 58.3828125 C-5.88190801 58.28871784 -4.0347381 58.20577681 -2.1875 58.125 C-6.1475 58.125 -10.1075 58.125 -14.1875 58.125 C-11.33709264 55.18551741 -8.41467719 52.42366633 -5.3125 49.75 C-3.936189 48.54316013 -2.56114958 47.33486829 -1.1875 46.125 C-0.33671875 45.39410156 -0.33671875 45.39410156 0.53125 44.6484375 C6.86931001 38.81861815 11.20520434 31.32795519 15.8125 24.125 C17.18455259 28.72866604 16.56285989 32.84839501 16.0625 37.5625 C15.98773438 38.40876953 15.91296875 39.25503906 15.8359375 40.12695312 C15.35309101 44.79812708 14.80775131 48.32758065 11.8125 52.125 C9.125 53.9375 9.125 53.9375 6.8125 55.125 C9.1225 54.135 11.4325 53.145 13.8125 52.125 C14.20789965 56.15807642 14.37566139 58.3553461 11.9375 61.6875 C10.90625 62.491875 9.875 63.29625 8.8125 64.125 C7.8853418 64.87511353 7.8853418 64.87511353 6.93945312 65.64038086 C-0.44283954 70.87437442 -7.72789593 71.08050936 -16.44384766 71.11474609 C-18.78842311 71.12489577 -21.12889696 71.177705 -23.47265625 71.23828125 C-51.8561423 71.79700174 -51.8561423 71.79700174 -61.1875 66.125 C-64.81422237 60.33287197 -64.84394566 52.68218243 -65.46484375 46.06640625 C-65.70332031 45.09574219 -65.94179687 44.12507813 -66.1875 43.125 C-67.97402058 41.98864443 -67.97402058 41.98864443 -70.1875 41.125 C-71.95547255 39.28336193 -73.58102089 37.47195993 -75.1875 35.5 C-75.62811768 34.96093018 -76.06873535 34.42186035 -76.52270508 33.86645508 C-80.59346996 28.78008635 -84.00268001 24.45175983 -84.375 17.75 C-82.63744106 12.44587272 -80.13014499 8.1057014 -76.1875 4.125 C-74.13531607 3.26242866 -72.68405297 3.05582226 -70.47265625 3.08984375 C-66.99488443 3.14334793 -63.63299106 2.58847064 -60.1875 2.125 C-59.67960937 3.12660156 -59.17171875 4.12820312 -58.6484375 5.16015625 C-55.06355366 12.11940809 -51.70366973 18.47092603 -46.1875 24.125 C-45.72601563 23.76148438 -45.26453125 23.39796875 -44.7890625 23.0234375 C-40.97170555 20.08120586 -37.079435 17.31875967 -33 14.75 C-32.20207031 14.24726563 -31.40414062 13.74453125 -30.58203125 13.2265625 C-27.85194541 11.97063394 -26.15767966 11.71907545 -23.1875 12.125 C-20.875 14.625 -20.875 14.625 -19.1875 17.125 C-24.10963618 23.74952915 -30.05693855 28.13169533 -36.78515625 32.73046875 C-40.11064152 35.04604113 -43.2495176 37.32117205 -46.1875 40.125 C-46.1875 41.445 -46.1875 42.765 -46.1875 44.125 C-45.78370117 43.3719458 -45.37990234 42.6188916 -44.96386719 41.84301758 C-43.11456785 39.01340659 -41.50402052 37.57816514 -38.765625 35.63671875 C-37.90453125 35.01216797 -37.0434375 34.38761719 -36.15625 33.74414062 C-34.35966644 32.46768866 -32.56279656 31.19163959 -30.765625 29.91601562 C-23.04506764 24.31516486 -17.217719 18.74355994 -13.08325195 10.08544922 C-9.90262927 3.5783409 -7.82265532 0.11528124 0 0 Z " fill="#6C4F45" transform="translate(157.1875,168.875)"/>
<path d="M0 0 C6.16044164 3.87227761 8.7691198 10.30735941 11 17 C11.99 16.34 12.98 15.68 14 15 C16.26171875 14.8046875 16.26171875 14.8046875 18.6875 14.875 C19.89986328 14.90207031 19.89986328 14.90207031 21.13671875 14.9296875 C22.05904297 14.96449219 22.05904297 14.96449219 23 15 C23.40021703 22.47071785 22.26644737 27.89172932 17.8125 34 C17.214375 34.66 16.61625 35.32 16 36 C14.515 35.505 14.515 35.505 13 35 C13.40992188 34.46632812 13.81984375 33.93265625 14.2421875 33.3828125 C18.33187654 27.72769225 20.16257124 22.91600651 21 16 C19.7625 16.45375 18.525 16.9075 17.25 17.375 C16.20585937 17.75785156 16.20585937 17.75785156 15.140625 18.1484375 C13.02516248 18.98999011 11.02065376 19.95326494 9 21 C8.82984375 20.34773438 8.6596875 19.69546875 8.484375 19.0234375 C7.00380743 13.68394382 5.59604239 9.27030034 2 5 C1.01 5 0.02 5 -1 5 C-5.11338613 12.69024364 -6.24490592 20.5698896 -4.57421875 29.19921875 C-3.92854632 31.3435245 -3.92854632 31.3435245 -2 34 C1.55892288 35.53045985 1.55892288 35.53045985 5 36 C5 36.33 5 36.66 5 37 C3.79988281 37.08636719 2.59976563 37.17273437 1.36328125 37.26171875 C-13.44761834 38.46219693 -27.94562679 41.05579053 -42 46 C-42.33 47.98 -42.66 49.96 -43 52 C-41.2675 51.505 -41.2675 51.505 -39.5 51 C-35.22499413 49.91598066 -31.39638547 49.84298623 -27 50 C-27 50.33 -27 50.66 -27 51 C-28.13179687 51.19335938 -29.26359375 51.38671875 -30.4296875 51.5859375 C-31.91153202 51.84854286 -33.39329892 52.11158648 -34.875 52.375 C-35.62136719 52.50132813 -36.36773437 52.62765625 -37.13671875 52.7578125 C-41.50990532 53.45268694 -41.50990532 53.45268694 -45 56 C-45.45662153 58.19291082 -45.820412 60.40585889 -46.125 62.625 C-46.37636719 64.40777344 -46.37636719 64.40777344 -46.6328125 66.2265625 C-46.81457031 67.59941406 -46.81457031 67.59941406 -47 69 C-46.34 69.33 -45.68 69.66 -45 70 C-45.33 77.59 -45.66 85.18 -46 93 C-47.98 92.01 -49.96 91.02 -52 90 C-50.78955868 94.60742865 -50.78955868 94.60742865 -49 99 C-49.66 99 -50.32 99 -51 99 C-51.33 100.65 -51.66 102.3 -52 104 C-50.68 104.33 -49.36 104.66 -48 105 C-48.33 105.99 -48.66 106.98 -49 108 C-49.80596091 118.90029104 -49.14331164 128.03571122 -42.1875 136.875 C-36.02506155 143.42163038 -27.51661245 146.55620661 -18.66625977 147.26818848 C-14.82747329 147.36204856 -10.99539671 147.36480983 -7.15625 147.328125 C-5.73718467 147.32505806 -4.3181163 147.32318906 -2.89904785 147.32244873 C0.05944551 147.31787478 3.01766227 147.30356447 5.97607422 147.28125 C9.74141128 147.25297055 13.50653182 147.24203421 17.27196503 147.2375679 C20.90008702 147.23237769 24.52815662 147.21787484 28.15625 147.203125 C29.1731617 147.20030392 29.1731617 147.20030392 30.21061707 147.19742584 C43.63261829 147.96161198 43.63261829 147.96161198 55.875 144 C62.6018197 134.50331337 62.4667671 126.29317068 62 115 C64.90364659 117.90364659 65.19068215 120.55053723 65.3125 124.5 C65.27330416 131.16329363 62.9536747 137.09265061 60 143 C61.61756692 142.17149011 63.21866905 141.31080079 64.8125 140.4375 C65.70582031 139.96183594 66.59914063 139.48617187 67.51953125 138.99609375 C74.34755797 133.50141398 74.13777456 123.65396342 75.1875 115.5625 C75.36474609 114.25861328 75.54199219 112.95472656 75.72460938 111.61132812 C76.1586732 108.40864102 76.58350448 105.20501099 77 102 C77.33 102 77.66 102 78 102 C78.05534912 102.56396484 78.11069824 103.12792969 78.16772461 103.70898438 C78.423235 106.30609726 78.680358 108.90304817 78.9375 111.5 C79.02451172 112.386875 79.11152344 113.27375 79.20117188 114.1875 C79.72553092 119.46993182 80.31735538 124.73564146 81 130 C83.31 129.67 85.62 129.34 88 129 C87.855625 128.39671875 87.71125 127.7934375 87.5625 127.171875 C87.376875 126.37265625 87.19125 125.5734375 87 124.75 C86.814375 123.96109375 86.62875 123.1721875 86.4375 122.359375 C86 120 86 120 86 116 C86.804375 115.87625 87.60875 115.7525 88.4375 115.625 C89.283125 115.41875 90.12875 115.2125 91 115 C91.33 114.34 91.66 113.68 92 113 C92 113.99 92 114.98 92 116 C90.68 116.33 89.36 116.66 88 117 C88.2165625 117.90492188 88.2165625 117.90492188 88.4375 118.828125 C88.623125 119.62734375 88.80875 120.4265625 89 121.25 C89.185625 122.03890625 89.37125 122.8278125 89.5625 123.640625 C90 126 90 126 90 130 C86.52674819 131.1577506 83.63932552 131.06866652 80 131 C79.01 127.535 79.01 127.535 78 124 C77.67 124 77.34 124 77 124 C76.84144531 124.80824219 76.68289062 125.61648437 76.51953125 126.44921875 C74.29910744 136.61900515 70.45451441 140.21438282 61.98828125 145.86328125 C60 147 60 147 58 147 C58.64195312 147.52078125 59.28390625 148.0415625 59.9453125 148.578125 C62.60135481 151.70882126 62.65311549 153.6850757 62.875 157.75 C62.99488281 159.50570312 62.99488281 159.50570312 63.1171875 161.296875 C63.01192927 164.62303507 62.42266118 167.28702695 61.54345703 170.46923828 C60.08901193 177.24227417 59.88432747 184.34204818 59.32275391 191.23950195 C59.14791143 193.35940706 58.96478869 195.47848907 58.78125 197.59765625 C58.6275293 199.47723022 58.6275293 199.47723022 58.47070312 201.39477539 C57.24104578 210.81300674 57.24104578 210.81300674 53.7578125 214.14453125 C52.88898438 214.69496094 52.02015625 215.24539062 51.125 215.8125 C50.26132813 216.37582031 49.39765625 216.93914062 48.5078125 217.51953125 C47.26644531 218.25236328 47.26644531 218.25236328 46 219 C45.42717285 219.35650635 44.8543457 219.7130127 44.26416016 220.08032227 C41.18315591 221.33179337 38.58556327 221.22443477 35.265625 221.1953125 C33.97011719 221.18886719 32.67460937 221.18242187 31.33984375 221.17578125 C29.97655981 221.15907193 28.61327856 221.14214206 27.25 221.125 C25.87110015 221.1149634 24.49219335 221.10583873 23.11328125 221.09765625 C19.74201118 221.07408093 16.37109364 221.0411727 13 221 C13 220.67 13 220.34 13 220 C14.17018677 220.01740234 14.17018677 220.01740234 15.36401367 220.03515625 C36.36669162 220.82240261 36.36669162 220.82240261 54 211 C55.35439668 208.29120665 55.06501451 205.99066732 55 203 C54.44570312 203.30035156 53.89140625 203.60070312 53.3203125 203.91015625 C52.23363281 204.48056641 52.23363281 204.48056641 51.125 205.0625 C50.40570313 205.44535156 49.68640625 205.82820312 48.9453125 206.22265625 C47.98238281 206.60744141 47.98238281 206.60744141 47 207 C46.34 206.67 45.68 206.34 45 206 C45.69867188 205.68289062 46.39734375 205.36578125 47.1171875 205.0390625 C52.45438258 202.4086966 52.45438258 202.4086966 56.07421875 197.90234375 C56.62915518 195.24308838 56.85563946 192.71468237 57 190 C57.15662109 188.02966797 57.15662109 188.02966797 57.31640625 186.01953125 C57.59936272 182.34887308 57.81370224 178.67692956 58 175 C57.39865234 176.01707031 57.39865234 176.01707031 56.78515625 177.0546875 C52.49357226 184.0808182 47.6969026 190.07036426 42 196 C41.36707031 196.67289063 40.73414063 197.34578125 40.08203125 198.0390625 C36.50812513 201.74708872 33.45838313 204.02774458 29 207 C33.95 207 38.9 207 44 207 C41.65367466 209.34632534 41.154298 209.26167051 37.97265625 209.34375 C37.18052734 209.37339844 36.38839844 209.40304688 35.57226562 209.43359375 C34.74404297 209.45550781 33.91582031 209.47742188 33.0625 209.5 C31.42813299 209.54344682 29.79396034 209.59519802 28.16015625 209.65625 C27.43449463 209.67494141 26.70883301 209.69363281 25.96118164 209.71289062 C23.68027844 209.90380137 23.68027844 209.90380137 21 212 C18.10524702 212.19508742 15.32923189 212.27879733 12.4375 212.25 C11.65697266 212.25773438 10.87644531 212.26546875 10.07226562 212.2734375 C4.25335498 212.25335498 4.25335498 212.25335498 2 210 C-0.85644346 209.61740179 -3.68904624 209.49341762 -6.56640625 209.34375 C-7.77103516 209.17359375 -7.77103516 209.17359375 -9 209 C-9.33 208.34 -9.66 207.68 -10 207 C-6.37 207 -2.74 207 1 207 C1.33 206.34 1.66 205.68 2 205 C2.66 206.65 3.32 208.3 4 210 C16.77437352 211.09943379 23.76621872 208.82397176 33.90625 200.66015625 C45.40183177 190.66468474 56.57330973 177.19902943 60 162 C59.40019748 159.62818755 59.40019748 159.62818755 58 158 C57.34 157.67 56.68 157.34 56 157 C55.731875 157.928125 55.46375 158.85625 55.1875 159.8125 C54.05519579 162.85184289 53.30099489 163.90073617 51 166 C51.2165625 165.38511719 51.433125 164.77023438 51.65625 164.13671875 C51.9346875 163.32847656 52.213125 162.52023438 52.5 161.6875 C52.7784375 160.88699219 53.056875 160.08648437 53.34375 159.26171875 C54.13933107 156.91230578 54.13933107 156.91230578 54 154 C49.78103134 151.95101713 46.34627854 151.78792003 41.6875 151.875 C40.43324219 151.89304688 39.17898437 151.91109375 37.88671875 151.9296875 C36.93410156 151.95289063 35.98148437 151.97609375 35 152 C34.6596875 152.67804688 34.319375 153.35609375 33.96875 154.0546875 C27.18547559 167.08001761 18.57898331 175.90707152 6.6640625 184.38671875 C6.11524414 184.78238037 5.56642578 185.17804199 5.00097656 185.58569336 C3.45643256 186.69168891 1.89655119 187.7761727 0.3359375 188.859375 C-2.28733052 191.26330623 -2.74377586 192.5104712 -3 196 C-3.99 195.01 -3.99 195.01 -5 194 C-4.89847204 190.59881342 -4.26948193 189.27693992 -1.8828125 186.82421875 C-0.97273438 186.11910156 -0.06265625 185.41398438 0.875 184.6875 C1.86371094 183.91148437 2.85242188 183.13546875 3.87109375 182.3359375 C6.85767622 180.10625421 9.88801509 177.95493758 12.9375 175.8125 C17.02390694 172.89947563 19.67052143 170.43710204 22 166 C20.96431405 164.29264699 20.96431405 164.29264699 19 163 C13.32056912 163.23577613 9.69038877 165.09937244 5.25 168.4375 C4.68667969 168.84548828 4.12335938 169.25347656 3.54296875 169.67382812 C2.02317923 170.77504678 0.51119923 171.88702219 -1 173 C-1.99 173.66 -2.98 174.32 -4 175 C-9.30050942 169.66726864 -18 159.98258556 -18 152 C-18.75925781 152.2165625 -19.51851562 152.433125 -20.30078125 152.65625 C-21.79158203 153.07390625 -21.79158203 153.07390625 -23.3125 153.5 C-24.79169922 153.91765625 -24.79169922 153.91765625 -26.30078125 154.34375 C-29 155 -29 155 -32 155 C-32 154.34 -32 153.68 -32 153 C-29.03 152.01 -26.06 151.02 -23 150 C-24.485 149.608125 -25.97 149.21625 -27.5 148.8125 C-36.73146096 145.99105348 -43.52024828 141.03777741 -49 133 C-52.40595888 125.81495753 -54.84939641 117.70670892 -52.31640625 109.890625 C-51.62073839 108.22634782 -50.82033685 106.606493 -50 105 C-51.32 104.67 -52.64 104.34 -54 104 C-53.835 102.845 -53.67 101.69 -53.5 100.5 C-52.96761689 96.30092197 -52.92447554 92.22936959 -53 88 C-51.35 88.33 -49.7 88.66 -48 89 C-48.01047363 88.05157227 -48.02094727 87.10314453 -48.03173828 86.12597656 C-48.06586708 82.59991009 -48.09092168 79.07401971 -48.10986328 75.54785156 C-48.11990744 74.02308377 -48.13354531 72.49833516 -48.15087891 70.97363281 C-48.17519738 68.77924862 -48.18649889 66.58511958 -48.1953125 64.390625 C-48.20578613 63.07094727 -48.21625977 61.75126953 -48.22705078 60.39160156 C-48.01456122 57.2175102 -47.60833606 55.65950553 -46 53 C-45.66241787 50.9724757 -45.66241787 50.9724757 -45.5625 48.9375 C-45 45 -45 45 -43.9296875 43.37890625 C-41.06671032 41.33309462 -37.94403766 40.73526768 -34.5625 40 C-33.46240601 39.75008301 -33.46240601 39.75008301 -32.34008789 39.49511719 C-23.30770674 37.51712688 -14.15631056 36.249879 -5 35 C-5.48339844 34.15695313 -5.96679688 33.31390625 -6.46484375 32.4453125 C-9.55345661 25.51361647 -9.25752008 17.51874883 -6.72265625 10.42578125 C-4.81623657 6.56166898 -3.06001756 3.06001756 0 0 Z " fill="#421A11" transform="translate(115,19)"/>
<path d="M0 0 C2.20770805 -0.08165496 4.41630425 -0.13948488 6.625 -0.1875 C7.85476562 -0.22230469 9.08453125 -0.25710937 10.3515625 -0.29296875 C14.26407664 0.0212053 16.64070218 1.03093467 20 3 C19.51421457 6.12290635 19.0013988 8.99580359 18 12 C18.99 10.02 19.98 8.04 21 6 C24 7 24 7 25.40234375 9.57421875 C26.19872296 14.13908522 24.70222148 16.90816985 22.5625 20.8125 C22.18923584 21.52100098 21.81597168 22.22950195 21.43139648 22.95947266 C18.46882091 28.44693486 15.13160074 33.32105045 11 38 C10.33484375 38.80695313 9.6696875 39.61390625 8.984375 40.4453125 C2.22180991 48.3998405 -7.94282983 59.07287357 -18.8515625 60.328125 C-19.76679688 60.30234375 -20.68203125 60.2765625 -21.625 60.25 C-22.54539062 60.23453125 -23.46578125 60.2190625 -24.4140625 60.203125 C-25.26742187 60.13609375 -26.12078125 60.0690625 -27 60 C-27.70511719 59.95746094 -28.41023438 59.91492188 -29.13671875 59.87109375 C-32.22295477 58.42826223 -32.85375597 55.84685339 -34.1875 52.8125 C-34.69667969 51.68457031 -35.20585938 50.55664062 -35.73046875 49.39453125 C-36.91727535 46.22119299 -37.57788484 43.35149263 -38 40 C-36.37493148 38.69609126 -34.74967456 37.39241672 -33.12353516 36.08984375 C-31.74030663 34.98090147 -30.35848697 33.87019974 -28.97802734 32.7578125 C-25.42345768 29.90144694 -21.83549292 27.15224182 -18.125 24.5 C-10.07526325 18.27284516 -4.51929707 8.99317407 0 0 Z " fill="#FDC361" transform="translate(150,170)"/>
<path d="M0 0 C0.75211761 -0.00100708 1.50423523 -0.00201416 2.27914429 -0.00305176 C14.27085558 0.00778763 25.88927979 0.57938981 37.625 3.25 C38.87023437 3.5284375 40.11546875 3.806875 41.3984375 4.09375 C48.80561388 6.059957 54.01962706 9.06911161 59.625 14.25 C60.31980469 14.84296875 61.01460938 15.4359375 61.73046875 16.046875 C66.51179995 20.36057101 66.51179995 20.36057101 67.0625 24.6875 C66.918125 25.533125 66.77375 26.37875 66.625 27.25 C63.985 25.6 61.345 23.95 58.625 22.25 C61.265 24.56 63.905 26.87 66.625 29.25 C66.295 30.57 65.965 31.89 65.625 33.25 C65.11453125 32.66992188 64.6040625 32.08984375 64.078125 31.4921875 C51.38336571 17.85207379 34.71329351 14.69254888 16.62329102 13.89819336 C11.59562951 13.76868102 6.57261475 13.77590592 1.54394531 13.83837891 C-1.53353498 13.87540345 -4.60981753 13.87939261 -7.6875 13.87890625 C-24.26484504 13.24990935 -24.26484504 13.24990935 -39.55859375 18.23828125 C-40.30238281 19.00527344 -41.04617187 19.77226563 -41.8125 20.5625 C-42.61300781 21.36171875 -43.41351563 22.1609375 -44.23828125 22.984375 C-44.94339844 23.73203125 -45.64851563 24.4796875 -46.375 25.25 C-47.41448252 26.27305729 -48.45561692 27.29444591 -49.5 28.3125 C-50.11875 28.951875 -50.7375 29.59125 -51.375 30.25 C-49.93075365 27.01138697 -48.11727753 24.63030837 -45.75 22 C-45.11835937 21.29359375 -44.48671875 20.5871875 -43.8359375 19.859375 C-43.35382813 19.32828125 -42.87171875 18.7971875 -42.375 18.25 C-47.48638103 20.11072204 -49.04312751 24.40409819 -51.59375 28.9140625 C-52.1815625 29.68492188 -52.769375 30.45578125 -53.375 31.25 C-54.695 31.25 -56.015 31.25 -57.375 31.25 C-57.45607583 29.31318839 -57.51422475 27.3754066 -57.5625 25.4375 C-57.59730469 24.35855469 -57.63210937 23.27960938 -57.66796875 22.16796875 C-57.375 19.25 -57.375 19.25 -56.125 17.4375 C-53.09760324 15.38319505 -49.92927722 15.00746892 -46.375 14.25 C-49.015 14.58 -51.655 14.91 -54.375 15.25 C-54.4375 12.5 -54.4375 12.5 -53.375 9.25 C-40.44821499 -1.07737715 -15.54104848 0.01445541 0 0 Z " fill="#F2CC68" transform="translate(126.375,55.75)"/>
<path d="M0 0 C0.50789063 1.00160156 1.01578125 2.00320312 1.5390625 3.03515625 C5.12394634 9.99440809 8.48383027 16.34592603 14 22 C14.46148437 21.63648438 14.92296875 21.27296875 15.3984375 20.8984375 C19.21579445 17.95620586 23.108065 15.19375967 27.1875 12.625 C27.98542969 12.12226563 28.78335938 11.61953125 29.60546875 11.1015625 C32.33555459 9.84563394 34.02982034 9.59407545 37 10 C39.3125 12.5 39.3125 12.5 41 15 C36.07786382 21.62452915 30.13056145 26.00669533 23.40234375 30.60546875 C22.26594729 31.40039367 21.13181685 32.19856805 20 33 C19.12214844 33.60678589 19.12214844 33.60678589 18.2265625 34.22583008 C16.32405878 35.58334686 16.32405878 35.58334686 14 38 C13.48943599 40.67617482 13.48943599 40.67617482 14.125 43.3125 C14.27195313 44.19550781 14.41890625 45.07851562 14.5703125 45.98828125 C14.71210937 46.65214844 14.85390625 47.31601563 15 48 C7.73891087 49.11709064 3.80999118 46.53488032 -2.0390625 42.3359375 C-9.8262134 36.19251239 -20.09551255 27.37871338 -21.37109375 16.97265625 C-20.94578626 13.5657194 -20.00605248 11.88332216 -18 9.125 C-17.443125 8.34382812 -16.88625 7.56265625 -16.3125 6.7578125 C-15.6628125 5.88769531 -15.6628125 5.88769531 -15 5 C-14.38125 5.78375 -13.7625 6.5675 -13.125 7.375 C-11.10141339 9.96837647 -11.10141339 9.96837647 -9 12 C-9.7734375 10.9171875 -9.7734375 10.9171875 -10.5625 9.8125 C-12.21442982 6.5804634 -12.06351675 5.38391693 -11 2 C-7.1389146 0.56331706 -4.103573 -0.11185208 0 0 Z " fill="#FBCA65" transform="translate(97,171)"/>
<path d="M0 0 C2.51144596 0.37404514 3.70666171 0.66776602 5.4140625 2.6015625 C8.05656183 7.01709363 9.84890089 10.97702207 11 16 C12.60875 15.01 12.60875 15.01 14.25 14 C17.30980686 12.11704193 18.1335864 12 22 12 C22.72641371 18.68300615 20.42741688 23.31879687 17 29 C16.34 29.66 15.68 30.32 15 31 C15.66 31.33 16.32 31.66 17 32 C17.33 31.34 17.66 30.68 18 30 C60.982204 32.54272667 60.982204 32.54272667 71.01953125 43.6953125 C71.67308594 44.45585938 72.32664062 45.21640625 73 46 C73.76699219 46.61617187 74.53398437 47.23234375 75.32421875 47.8671875 C78.98269298 50.84249115 80.766327 52.74099818 81.64453125 57.47265625 C81.79391614 59.92104923 81.87254326 62.37518486 81.8671875 64.828125 C82.0024 68.05731753 82.60230237 69.2062592 84 72 C84.41064453 74.02709961 84.41064453 74.02709961 84.6328125 76.15234375 C84.71660156 76.92900391 84.80039063 77.70566406 84.88671875 78.50585938 C84.96535156 79.30830078 85.04398437 80.11074219 85.125 80.9375 C85.25455078 82.13536133 85.25455078 82.13536133 85.38671875 83.35742188 C85.79353071 87.25442214 86.10749815 91.07631758 86 95 C85.90754997 96.46225016 85.90754997 96.46225016 88 99 C88.89365125 100.71960164 89.76736283 102.44965626 90.625 104.1875 C91.07101563 105.08855469 91.51703125 105.98960937 91.9765625 106.91796875 C92.48316406 107.94857422 92.48316406 107.94857422 93 109 C91.6875 110.5 91.6875 110.5 90 112 C89.01 112 88.02 112 87 112 C87.2165625 112.90492188 87.2165625 112.90492188 87.4375 113.828125 C87.623125 114.62734375 87.80875 115.4265625 88 116.25 C88.185625 117.03890625 88.37125 117.8278125 88.5625 118.640625 C89 121 89 121 89 125 C85.535 125.495 85.535 125.495 82 126 C81.51960995 123.62524166 81.04065526 121.25020845 80.5625 118.875 C80.42779297 118.20984375 80.29308594 117.5446875 80.15429688 116.859375 C79.36186273 112.91653193 78.63707245 108.97087879 78 105 C77.67 105 77.34 105 77 105 C77.14214728 101.99978513 77.28861696 98.99988211 77.4375 96 C77.47681641 95.16082031 77.51613281 94.32164063 77.55664062 93.45703125 C77.81851332 88.25986542 78.2899352 83.15542847 79 78 C78.27425781 77.73960938 77.54851562 77.47921875 76.80078125 77.2109375 C73.91877063 75.96487991 71.70684671 74.48907236 69.1875 72.625 C64.94081745 69.57528344 60.73946941 67.1941988 56 65 C59 64 59 64 61.890625 65.2578125 C62.99921875 65.87398438 64.1078125 66.49015625 65.25 67.125 C65.82903076 67.4454126 66.40806152 67.7658252 67.00463867 68.09594727 C71.23111856 70.47019441 75.15833963 73.05174902 79 76 C79.41799604 67.27123722 79.41799604 67.27123722 76.15234375 59.51171875 C74.17309589 57.8256928 72.22217853 56.34646809 70 55 C73.90838866 55 75.11594107 56.50567876 78 59 C78.366425 55.74797816 78.29182976 54.3945106 76.3125 51.71875 C59.08458314 35.1892622 37.43692558 33.95495964 14.38671875 33.42895508 C1.04761942 33.04761942 1.04761942 33.04761942 -2.875 29.125 C-6.00494964 23.21287291 -5.87143764 15.78566091 -4.3984375 9.38671875 C-3.25205228 5.84913609 -2.07693604 3.11540406 0 0 Z " fill="#703224" transform="translate(114,23)"/>
<path d="M0 0 C14.80771696 4.93590565 14.80771696 4.93590565 19 11 C20.4488956 16.29144243 19.222869 21.91182588 18.39355469 27.23046875 C17.832911 31.1758422 17.57363066 35.13013559 17.28344727 39.10302734 C15.67520079 61.09957418 15.67520079 61.09957418 11 67 C8.51953125 68.80078125 8.51953125 68.80078125 5.8125 70.3125 C4.91144531 70.82425781 4.01039063 71.33601563 3.08203125 71.86328125 C2.39496094 72.23839844 1.70789063 72.61351562 1 73 C1 69.70959698 1.74929819 67.95568665 3 64.9375 C5.6247517 57.93507055 5.93551539 51.2581827 4 44 C3.34 44 2.68 44 2 44 C1.67 42.68 1.34 41.36 1 40 C3.64 39.34 6.28 38.68 9 38 C8.04065919 34.16263678 7.76390737 33.40339772 5 31 C6.51367188 28.50976562 6.51367188 28.50976562 8.02734375 26.01953125 C9.29549394 23.60067621 9.29549394 23.60067621 10 19 C5.545 21.97 5.545 21.97 1 25 C0.34 24.67 -0.32 24.34 -1 24 C-0.67 16.08 -0.34 8.16 0 0 Z " fill="#F9C05F" transform="translate(174,90)"/>
<path d="M0 0 C0.33 0 0.66 0 1 0 C1.05534912 0.56396484 1.11069824 1.12792969 1.16772461 1.70898438 C1.423235 4.30609726 1.680358 6.90304817 1.9375 9.5 C2.02451172 10.386875 2.11152344 11.27375 2.20117188 12.1875 C2.72553092 17.46993182 3.31735538 22.73564146 4 28 C6.31 27.67 8.62 27.34 11 27 C10.7834375 26.09507812 10.7834375 26.09507812 10.5625 25.171875 C10.2840625 23.97304687 10.2840625 23.97304687 10 22.75 C9.814375 21.96109375 9.62875 21.1721875 9.4375 20.359375 C9 18 9 18 9 14 C10.2065625 13.814375 10.2065625 13.814375 11.4375 13.625 C12.283125 13.41875 13.12875 13.2125 14 13 C14.33 12.34 14.66 11.68 15 11 C15 11.99 15 12.98 15 14 C13.68 14.33 12.36 14.66 11 15 C11.2165625 15.90492188 11.2165625 15.90492188 11.4375 16.828125 C11.7159375 18.02695313 11.7159375 18.02695313 12 19.25 C12.185625 20.03890625 12.37125 20.8278125 12.5625 21.640625 C13 24 13 24 13 28 C9.52674819 29.1577506 6.63932552 29.06866652 3 29 C2.01 25.535 2.01 25.535 1 22 C0.67 22 0.34 22 0 22 C-0.23783203 23.21236328 -0.23783203 23.21236328 -0.48046875 24.44921875 C-2.70089256 34.61900515 -6.54548559 38.21438282 -15.01171875 43.86328125 C-17 45 -17 45 -19 45 C-18.35804688 45.52078125 -17.71609375 46.0415625 -17.0546875 46.578125 C-14.39864519 49.70882126 -14.34688451 51.6850757 -14.125 55.75 C-14.00511719 57.50570312 -14.00511719 57.50570312 -13.8828125 59.296875 C-13.98807073 62.62303507 -14.57733882 65.28702695 -15.45654297 68.46923828 C-16.91098807 75.24227417 -17.11567253 82.34204818 -17.67724609 89.23950195 C-17.85208857 91.35940706 -18.03521131 93.47848907 -18.21875 95.59765625 C-18.3724707 97.47723022 -18.3724707 97.47723022 -18.52929688 99.39477539 C-19.75895422 108.81300674 -19.75895422 108.81300674 -23.2421875 112.14453125 C-24.54542969 112.97017578 -24.54542969 112.97017578 -25.875 113.8125 C-27.17050781 114.65748047 -27.17050781 114.65748047 -28.4921875 115.51953125 C-29.31976563 116.00808594 -30.14734375 116.49664062 -31 117 C-31.57282715 117.35650635 -32.1456543 117.7130127 -32.73583984 118.08032227 C-35.81684409 119.33179337 -38.41443673 119.22443477 -41.734375 119.1953125 C-43.02988281 119.18886719 -44.32539063 119.18242187 -45.66015625 119.17578125 C-47.02344019 119.15907193 -48.38672144 119.14214206 -49.75 119.125 C-51.12889985 119.1149634 -52.50780665 119.10583873 -53.88671875 119.09765625 C-57.25798882 119.07408093 -60.62890636 119.0411727 -64 119 C-64 118.67 -64 118.34 -64 118 C-63.21987549 118.01160156 -62.43975098 118.02320313 -61.63598633 118.03515625 C-40.63330838 118.82240261 -40.63330838 118.82240261 -23 109 C-21.64560332 106.29120665 -21.93498549 103.99066732 -22 101 C-22.55429688 101.30035156 -23.10859375 101.60070312 -23.6796875 101.91015625 C-24.40414062 102.29042969 -25.12859375 102.67070312 -25.875 103.0625 C-26.59429687 103.44535156 -27.31359375 103.82820313 -28.0546875 104.22265625 C-28.69664062 104.47917969 -29.33859375 104.73570312 -30 105 C-30.99 104.505 -30.99 104.505 -32 104 C-30.95199219 103.52433594 -30.95199219 103.52433594 -29.8828125 103.0390625 C-24.54561742 100.4086966 -24.54561742 100.4086966 -20.92578125 95.90234375 C-20.37084482 93.24308838 -20.14436054 90.71468237 -20 88 C-19.89558594 86.68644531 -19.79117188 85.37289062 -19.68359375 84.01953125 C-19.40063728 80.34887308 -19.18629776 76.67692956 -19 73 C-19.60134766 74.01707031 -19.60134766 74.01707031 -20.21484375 75.0546875 C-24.50642774 82.0808182 -29.3030974 88.07036426 -35 94 C-35.63292969 94.67289062 -36.26585937 95.34578125 -36.91796875 96.0390625 C-40.49187487 99.74708872 -43.54161687 102.02774458 -48 105 C-43.05 105 -38.1 105 -33 105 C-35.34632534 107.34632534 -35.845702 107.26167051 -39.02734375 107.34375 C-39.81947266 107.37339844 -40.61160156 107.40304688 -41.42773438 107.43359375 C-42.25595703 107.45550781 -43.08417969 107.47742188 -43.9375 107.5 C-45.57186701 107.54344682 -47.20603966 107.59519802 -48.83984375 107.65625 C-49.92833618 107.68428711 -49.92833618 107.68428711 -51.03881836 107.71289062 C-53.31972156 107.90380137 -53.31972156 107.90380137 -56 110 C-58.89475298 110.19508742 -61.67076811 110.27879733 -64.5625 110.25 C-65.34302734 110.25773437 -66.12355469 110.26546875 -66.92773438 110.2734375 C-72.74664502 110.25335498 -72.74664502 110.25335498 -75 108 C-77.85644346 107.61740179 -80.68904624 107.49341762 -83.56640625 107.34375 C-84.77103516 107.17359375 -84.77103516 107.17359375 -86 107 C-86.33 106.34 -86.66 105.68 -87 105 C-83.37 105 -79.74 105 -76 105 C-75.505 104.01 -75.505 104.01 -75 103 C-74.34 104.65 -73.68 106.3 -73 108 C-60.22562648 109.09943379 -53.23378128 106.82397176 -43.09375 98.66015625 C-31.59816823 88.66468474 -20.42669027 75.19902943 -17 60 C-17.59980252 57.62818755 -17.59980252 57.62818755 -19 56 C-19.66 55.67 -20.32 55.34 -21 55 C-21.268125 55.928125 -21.53625 56.85625 -21.8125 57.8125 C-22.94480421 60.85184289 -23.69900511 61.90073617 -26 64 C-25.7834375 63.38511719 -25.566875 62.77023438 -25.34375 62.13671875 C-25.0653125 61.32847656 -24.786875 60.52023438 -24.5 59.6875 C-24.08234375 58.48673828 -24.08234375 58.48673828 -23.65625 57.26171875 C-22.86066893 54.91230578 -22.86066893 54.91230578 -23 52 C-27.55491614 49.79600832 -32.02906176 49.41153737 -37 49 C-37 48.34 -37 47.68 -37 47 C-53.83 47 -70.66 47 -88 47 C-88 46.67 -88 46.34 -88 46 C-87.34569 45.98969254 -86.69138 45.97938507 -86.01724243 45.96876526 C-79.17074823 45.8600878 -72.32436951 45.74554463 -65.47802734 45.62768555 C-62.92727082 45.58453183 -60.37648903 45.5428441 -57.82568359 45.50268555 C-54.14673266 45.44450612 -50.46790659 45.38095204 -46.7890625 45.31640625 C-45.65949127 45.29969376 -44.52992004 45.28298126 -43.36611938 45.26576233 C-31.68917885 45.68090802 -31.68917885 45.68090802 -21.125 42 C-14.3981803 32.50331337 -14.5332329 24.29317068 -15 13 C-12.09635341 15.90364659 -11.80931785 18.55053723 -11.6875 22.5 C-11.72669584 29.16329363 -14.0463253 35.09265061 -17 41 C-15.38243308 40.17149011 -13.78133095 39.31080079 -12.1875 38.4375 C-11.29417969 37.96183594 -10.40085937 37.48617187 -9.48046875 36.99609375 C-2.65244203 31.50141398 -2.86222544 21.65396342 -1.8125 13.5625 C-1.63525391 12.25861328 -1.45800781 10.95472656 -1.27539062 9.61132812 C-0.8413268 6.40864102 -0.41649552 3.20501099 0 0 Z " fill="#744827" transform="translate(192,121)"/>
<path d="M0 0 C3 1 3 1 4.40234375 3.57421875 C5.19872296 8.13908522 3.70222148 10.90816985 1.5625 14.8125 C1.18923584 15.52100098 0.81597168 16.22950195 0.43139648 16.95947266 C-2.53117909 22.44693486 -5.86839926 27.32105045 -10 32 C-10.66515625 32.80695313 -11.3303125 33.61390625 -12.015625 34.4453125 C-18.8225632 42.45203477 -28.91306123 52.96974616 -39.8515625 54.36328125 C-40.76679688 54.34652344 -41.68203125 54.32976562 -42.625 54.3125 C-43.54539062 54.30863281 -44.46578125 54.30476563 -45.4140625 54.30078125 C-48.05090173 53.99407941 -49.72938613 53.33784996 -52 52 C-51.16082031 51.65001953 -51.16082031 51.65001953 -50.3046875 51.29296875 C-32.4595962 43.17373911 -19.28952537 28.36073748 -8.19335938 12.64477539 C-7.10636667 11.14660234 -5.95085054 9.69875809 -4.7890625 8.2578125 C-2.7386395 5.67016077 -1.38895738 2.98625838 0 0 Z " fill="#D99769" transform="translate(171,176)"/>
<path d="M0 0 C2.51144596 0.37404514 3.70666171 0.66776602 5.4140625 2.6015625 C8.05656183 7.01709363 9.84890089 10.97702207 11 16 C12.60875 15.01 12.60875 15.01 14.25 14 C17.30980686 12.11704193 18.1335864 12 22 12 C22.72641371 18.68300615 20.42741688 23.31879687 17 29 C14.07019189 31.92980811 10.98155524 31.36810632 7.0625 31.375 C5.96905273 31.41173828 5.96905273 31.41173828 4.85351562 31.44921875 C-0.47614727 31.47852945 -0.47614727 31.47852945 -2.94140625 29.2265625 C-6.21453279 22.3421266 -5.94608926 14.16255322 -3.625 7 C-2.63801657 4.28828796 -1.63225864 2.44838796 0 0 Z " fill="#FBD46B" transform="translate(114,23)"/>
<path d="M0 0 C15.84 0 31.68 0 48 0 C46.58001139 3.54997152 45.3878411 6.18729934 43.375 9.3125 C42.70597656 10.35857422 42.70597656 10.35857422 42.0234375 11.42578125 C41.68570313 11.94527344 41.34796875 12.46476563 41 13 C38.50638429 11.79618552 36.31856917 10.54571278 34 9 C30.2258743 9.34162345 27.20286843 11.47730045 24 13.375 C22.96875 13.98085937 21.9375 14.58671875 20.875 15.2109375 C18.47284076 16.70575942 16.22464647 18.25664724 14 20 C12 19 12 19 11 16 C11.99 15.67 12.98 15.34 14 15 C13.505 14.278125 13.01 13.55625 12.5 12.8125 C10.90736769 9.82631441 10.81641197 8.3045846 11 5 C10.67 4.67 10.34 4.34 10 4 C10.66 7.63 11.32 11.26 12 15 C11.01 15.33 10.02 15.66 9 16 C5.7264182 12.36268689 0 5.19834252 0 0 Z " fill="#E79856" transform="translate(99,170)"/>
<path d="M0 0 C6.16044164 3.87227761 8.7691198 10.30735941 11 17 C11.99 16.34 12.98 15.68 14 15 C16.26171875 14.8046875 16.26171875 14.8046875 18.6875 14.875 C19.89986328 14.90207031 19.89986328 14.90207031 21.13671875 14.9296875 C22.05904297 14.96449219 22.05904297 14.96449219 23 15 C23.40021703 22.47071785 22.26644737 27.89172932 17.8125 34 C17.214375 34.66 16.61625 35.32 16 36 C14.515 35.505 14.515 35.505 13 35 C13.40992188 34.46632812 13.81984375 33.93265625 14.2421875 33.3828125 C18.33187654 27.72769225 20.16257124 22.91600651 21 16 C19.7625 16.45375 18.525 16.9075 17.25 17.375 C16.20585937 17.75785156 16.20585937 17.75785156 15.140625 18.1484375 C13.02516248 18.98999011 11.02065376 19.95326494 9 21 C8.82984375 20.34773438 8.6596875 19.69546875 8.484375 19.0234375 C7.00380743 13.68394382 5.59604239 9.27030034 2 5 C1.01 5 0.02 5 -1 5 C-5.11338613 12.69024364 -6.24490592 20.5698896 -4.57421875 29.19921875 C-3.92854632 31.3435245 -3.92854632 31.3435245 -2 34 C1.55892288 35.53045985 1.55892288 35.53045985 5 36 C5 36.33 5 36.66 5 37 C3.79988281 37.08636719 2.59976563 37.17273437 1.36328125 37.26171875 C-13.44761834 38.46219693 -27.94562679 41.05579053 -42 46 C-42.33 47.98 -42.66 49.96 -43 52 C-41.2675 51.505 -41.2675 51.505 -39.5 51 C-35.22499413 49.91598066 -31.39638547 49.84298623 -27 50 C-27 50.33 -27 50.66 -27 51 C-28.13179687 51.19335938 -29.26359375 51.38671875 -30.4296875 51.5859375 C-31.91153202 51.84854286 -33.39329892 52.11158648 -34.875 52.375 C-35.62136719 52.50132813 -36.36773437 52.62765625 -37.13671875 52.7578125 C-41.50990532 53.45268694 -41.50990532 53.45268694 -45 56 C-45.45662153 58.19291082 -45.820412 60.40585889 -46.125 62.625 C-46.37636719 64.40777344 -46.37636719 64.40777344 -46.6328125 66.2265625 C-46.81457031 67.59941406 -46.81457031 67.59941406 -47 69 C-46.34 69.33 -45.68 69.66 -45 70 C-45.33 77.59 -45.66 85.18 -46 93 C-47.98 92.01 -49.96 91.02 -52 90 C-50.78955868 94.60742865 -50.78955868 94.60742865 -49 99 C-49.66 99 -50.32 99 -51 99 C-51.33 100.65 -51.66 102.3 -52 104 C-50.68 104.33 -49.36 104.66 -48 105 C-48.33 105.99 -48.66 106.98 -49 108 C-49.22733928 110.83332104 -49.38018046 113.66515481 -49.5234375 116.50390625 C-49.68070312 117.32761719 -49.83796875 118.15132813 -50 119 C-51.485 119.99 -51.485 119.99 -53 121 C-53.37952295 114.80112515 -52.8352113 110.5522888 -50 105 C-51.32 104.67 -52.64 104.34 -54 104 C-53.835 102.845 -53.67 101.69 -53.5 100.5 C-52.96761689 96.30092197 -52.92447554 92.22936959 -53 88 C-51.35 88.33 -49.7 88.66 -48 89 C-48.01047363 88.05157227 -48.02094727 87.10314453 -48.03173828 86.12597656 C-48.06586708 82.59991009 -48.09092168 79.07401971 -48.10986328 75.54785156 C-48.11990744 74.02308377 -48.13354531 72.49833516 -48.15087891 70.97363281 C-48.17519738 68.77924862 -48.18649889 66.58511958 -48.1953125 64.390625 C-48.20578613 63.07094727 -48.21625977 61.75126953 -48.22705078 60.39160156 C-48.01456122 57.2175102 -47.60833606 55.65950553 -46 53 C-45.66241787 50.9724757 -45.66241787 50.9724757 -45.5625 48.9375 C-45 45 -45 45 -43.9296875 43.37890625 C-41.06671032 41.33309462 -37.94403766 40.73526768 -34.5625 40 C-33.46240601 39.75008301 -33.46240601 39.75008301 -32.34008789 39.49511719 C-23.30770674 37.51712688 -14.15631056 36.249879 -5 35 C-5.48339844 34.15695313 -5.96679688 33.31390625 -6.46484375 32.4453125 C-9.55345661 25.51361647 -9.25752008 17.51874883 -6.72265625 10.42578125 C-4.81623657 6.56166898 -3.06001756 3.06001756 0 0 Z " fill="#6D4B3C" transform="translate(115,19)"/>
<path d="M0 0 C1.03657242 0.00040787 1.03657242 0.00040787 2.09408569 0.00082397 C11.62794468 0.0179355 21.11431173 0.27884147 30.625 1 C31.60041748 1.07001221 32.57583496 1.14002441 33.58081055 1.2121582 C42.113675 1.95475803 51.08477137 3.19351057 58.0625 8.5 C58.86945313 9.10585937 59.67640625 9.71171875 60.5078125 10.3359375 C63.6792112 12.88380696 66.77526806 15.48040197 69.8125 18.1875 C69.4825 19.5075 69.1525 20.8275 68.8125 22.1875 C68.30203125 21.60742188 67.7915625 21.02734375 67.265625 20.4296875 C54.57086571 6.78957379 37.90079351 3.63004888 19.81079102 2.83569336 C14.78312951 2.70618102 9.76011475 2.71340592 4.73144531 2.77587891 C1.65396502 2.81290345 -1.42231753 2.81689261 -4.5 2.81640625 C-21.07734504 2.18740935 -21.07734504 2.18740935 -36.37109375 7.17578125 C-37.11488281 7.94277344 -37.85867187 8.70976563 -38.625 9.5 C-39.42550781 10.29921875 -40.22601563 11.0984375 -41.05078125 11.921875 C-41.75589844 12.66953125 -42.46101563 13.4171875 -43.1875 14.1875 C-44.22698252 15.21055729 -45.26811692 16.23194591 -46.3125 17.25 C-46.93125 17.889375 -47.55 18.52875 -48.1875 19.1875 C-46.74325365 15.94888697 -44.92977753 13.56780837 -42.5625 10.9375 C-41.93085937 10.23109375 -41.29921875 9.5246875 -40.6484375 8.796875 C-40.16632813 8.26578125 -39.68421875 7.7346875 -39.1875 7.1875 C-44.29888103 9.04822204 -45.85562751 13.34159819 -48.40625 17.8515625 C-48.9940625 18.62242188 -49.581875 19.39328125 -50.1875 20.1875 C-51.5075 20.1875 -52.8275 20.1875 -54.1875 20.1875 C-54.26857583 18.25068839 -54.32672475 16.3129066 -54.375 14.375 C-54.40980469 13.29605469 -54.44460937 12.21710938 -54.48046875 11.10546875 C-54.1875 8.1875 -54.1875 8.1875 -52.98925781 6.57592773 C-50.6882788 4.80280203 -48.92939518 4.51076565 -46.06640625 4.0546875 C-45.04740234 3.88839844 -44.02839844 3.72210938 -42.97851562 3.55078125 C-41.91310547 3.38964844 -40.84769531 3.22851562 -39.75 3.0625 C-38.71939453 2.89363281 -37.68878906 2.72476563 -36.62695312 2.55078125 C-24.41332332 0.61065494 -12.35881542 -0.01836818 0 0 Z " fill="#F7D2D9" transform="translate(123.1875,66.8125)"/>
<path d="M0 0 C1.8984375 0.296875 1.8984375 0.296875 4 1 C5.625 4.25 5.625 4.25 7 8 C7.391875 8.969375 7.78375 9.93875 8.1875 10.9375 C8.455625 11.618125 8.72375 12.29875 9 13 C6.06799526 10.14723863 3.35684596 7.34920216 1 4 C0.14971836 5.19646773 -0.6794958 6.40791876 -1.5 7.625 C-1.9640625 8.29789063 -2.428125 8.97078125 -2.90625 9.6640625 C-4.32494802 12.69399614 -4.36874014 14.68133874 -4 18 C1.30781424 29.69084486 11.56412466 39.3826712 23 45 C25.81230815 45.74078148 28.07202223 45.94475514 31 46 C30.79375 45.38125 30.5875 44.7625 30.375 44.125 C30.25125 43.42375 30.1275 42.7225 30 42 C30.66 41.34 31.32 40.68 32 40 C32.69670416 41.78810766 33.38211189 43.58062052 34.0625 45.375 C34.44535156 46.37273437 34.82820313 47.37046875 35.22265625 48.3984375 C36 51 36 51 35 53 C27.69862261 54.32947253 21.03256459 54.3441882 14 52 C15.485 56.95 15.485 56.95 17 62 C15.515 61.505 15.515 61.505 14 61 C13.33021327 57.70896017 12.66470178 54.4170703 12 51.125 C11.80921875 50.18785156 11.6184375 49.25070313 11.421875 48.28515625 C11.15117188 46.94130859 11.15117188 46.94130859 10.875 45.5703125 C10.70742187 44.74289551 10.53984375 43.91547852 10.3671875 43.06298828 C10 41 10 41 10 39 C9.443125 38.78601563 8.88625 38.57203125 8.3125 38.3515625 C5.23774301 36.55449169 3.21990345 34.09994091 1 31.375 C0.55938232 30.83593018 0.11876465 30.29686035 -0.33520508 29.74145508 C-4.40596996 24.65508635 -7.81518001 20.32675983 -8.1875 13.625 C-6.4668985 8.37263754 -3.35109233 4.34854539 0 0 Z " fill="#5C3526" transform="translate(81,173)"/>
<path d="M0 0 C1.37205259 4.60366604 0.75035989 8.72339501 0.25 13.4375 C0.17523438 14.28376953 0.10046875 15.13003906 0.0234375 16.00195312 C-0.45467195 20.62729986 -0.88768537 24.34371887 -4 28 C-6.59375 29.546875 -6.59375 29.546875 -9.5 30.75 C-10.4590625 31.15734375 -11.418125 31.5646875 -12.40625 31.984375 C-16.60112642 33.62694709 -19.68858687 34.11087541 -24.1875 34.0625 C-25.81751953 34.04896484 -25.81751953 34.04896484 -27.48046875 34.03515625 C-28.31191406 34.02355469 -29.14335937 34.01195312 -30 34 C-27.14959264 31.06051741 -24.22717719 28.29866633 -21.125 25.625 C-19.748689 24.41816013 -18.37364958 23.20986829 -17 22 C-16.14921875 21.26910156 -16.14921875 21.26910156 -15.28125 20.5234375 C-8.94318999 14.69361815 -4.60729566 7.20295519 0 0 Z " fill="#D49A75" transform="translate(173,193)"/>
<path d="M0 0 C2.45823172 3.68734758 3.01242616 6.69699971 4 11 C4.99 10.01 5.98 9.02 7 8 C8.98 12.29 10.96 16.58 13 21 C12.01 21.99 11.02 22.98 10 24 C9.01 24 8.02 24 7 24 C7.144375 24.60328125 7.28875 25.2065625 7.4375 25.828125 C7.623125 26.62734375 7.80875 27.4265625 8 28.25 C8.185625 29.03890625 8.37125 29.8278125 8.5625 30.640625 C9 33 9 33 9 37 C5.535 37.495 5.535 37.495 2 38 C-1.57621896 25.21047116 -0.97804814 13.14284299 0 0 Z " fill="#F2444B" transform="translate(194,111)"/>
<path d="M0 0 C6.16044164 3.87227761 8.7691198 10.30735941 11 17 C11.99 16.34 12.98 15.68 14 15 C16.26171875 14.8046875 16.26171875 14.8046875 18.6875 14.875 C19.89986328 14.90207031 19.89986328 14.90207031 21.13671875 14.9296875 C22.05904297 14.96449219 22.05904297 14.96449219 23 15 C23.40021703 22.47071785 22.26644737 27.89172932 17.8125 34 C17.214375 34.66 16.61625 35.32 16 36 C15.01 35.67 14.02 35.34 13 35 C13.61488281 34.19949219 13.61488281 34.19949219 14.2421875 33.3828125 C18.33187654 27.72769225 20.16257124 22.91600651 21 16 C19.7625 16.45375 18.525 16.9075 17.25 17.375 C16.55390625 17.63023438 15.8578125 17.88546875 15.140625 18.1484375 C13.02516248 18.98999011 11.02065376 19.95326494 9 21 C8.82984375 20.34773438 8.6596875 19.69546875 8.484375 19.0234375 C7.00380743 13.68394382 5.59604239 9.27030034 2 5 C1.01 5 0.02 5 -1 5 C-5.11338613 12.69024364 -6.24490592 20.5698896 -4.57421875 29.19921875 C-3.92854632 31.3435245 -3.92854632 31.3435245 -2 34 C1.55892288 35.53045985 1.55892288 35.53045985 5 36 C5 36.33 5 36.66 5 37 C1.79217315 37.338329 -1.41633098 37.66976146 -4.625 38 C-5.52863281 38.09539063 -6.43226562 38.19078125 -7.36328125 38.2890625 C-11.93063039 38.75579891 -16.40117188 39.12222799 -21 39 C-17.65479742 37.06757715 -14.55232518 36.4536147 -10.75 35.875 C-9.13351563 35.62363281 -9.13351563 35.62363281 -7.484375 35.3671875 C-6.66453125 35.24601562 -5.8446875 35.12484375 -5 35 C-5.48339844 34.15695313 -5.96679688 33.31390625 -6.46484375 32.4453125 C-9.55345661 25.51361647 -9.25752008 17.51874883 -6.72265625 10.42578125 C-4.81623657 6.56166898 -3.06001756 3.06001756 0 0 Z " fill="#5B382C" transform="translate(115,19)"/>
<path d="M0 0 C2.75390625 1.609375 2.75390625 1.609375 5.5625 3.75 C6.49191406 4.44609375 7.42132813 5.1421875 8.37890625 5.859375 C10.76656115 7.80935247 12.98444341 9.66669684 15 12 C15 12.99 15 13.98 15 15 C11.57911967 15.40209262 10.23375093 15.1554937 7.31640625 13.21484375 C5.48073421 11.6968341 3.64739586 10.17599798 1.81640625 8.65234375 C-0.90076063 6.71719782 -0.90076063 6.71719782 -4.08984375 7.125 C-6.66936926 7.90058888 -8.78946709 8.74344396 -11.125 10.0625 C-14.25998809 11.83143906 -15.13815855 12 -19 12 C-18.6886386 9.09396023 -18.06619741 8.06419143 -15.9375 6 C-5.96553352 -0.78942398 -5.96553352 -0.78942398 0 0 Z " fill="#8D6C5E" transform="translate(149,93)"/>
<path d="M0 0 C1.16144531 0.11988281 2.32289062 0.23976563 3.51953125 0.36328125 C4.39996094 0.47027344 5.28039062 0.57726562 6.1875 0.6875 C5.8575 3.9875 5.5275 7.2875 5.1875 10.6875 C1.04541608 12.26543673 -2.37440648 13.26638176 -6.8125 12.6875 C-9.94407632 10.48693285 -10.69748223 9.18591035 -11.5625 5.4375 C-11.645 4.53 -11.7275 3.6225 -11.8125 2.6875 C-7.65793397 -0.35605214 -5.06452953 -0.5627255 0 0 Z " fill="#684221" transform="translate(116.8125,127.3125)"/>
<path d="M0 0 C0 0.33 0 0.66 0 1 C-1.65 1.33 -3.3 1.66 -5 2 C-4.07248802 3.9630836 -3.13263547 5.92034027 -2.1875 7.875 C-1.66542969 8.96554688 -1.14335938 10.05609375 -0.60546875 11.1796875 C0.84724897 14.22221402 0.84724897 14.22221402 4 16 C4.66 16 5.32 16 6 16 C5.67 15.484375 5.34 14.96875 5 14.4375 C3.67989123 11.21973488 3.86757895 8.4429472 4 5 C5.32 5.33 6.64 5.66 8 6 C7.01 6 6.02 6 5 6 C5.47730838 7.4589426 5.95691042 8.91713496 6.4375 10.375 C6.70433594 11.18710938 6.97117187 11.99921875 7.24609375 12.8359375 C7.95179729 15.01031799 7.95179729 15.01031799 9 17 C8.01 17.33 7.02 17.66 6 18 C6.66 18.66 7.32 19.32 8 20 C10.27103391 18.54197823 12.54183435 17.08359508 14.8125 15.625 C15.77639648 15.00625 15.77639648 15.00625 16.75976562 14.375 C19.51957989 12.60185508 22.27052708 10.81964862 25 9 C28.96125928 9.2731903 31.84249552 11.77539457 35 14 C34.67 14.66 34.34 15.32 34 16 C30.125 14.125 30.125 14.125 29 13 C23.32118552 13.28959129 19.69736938 15.09412467 15.25 18.4375 C14.68667969 18.84548828 14.12335938 19.25347656 13.54296875 19.67382812 C12.02317923 20.77504678 10.51119923 21.88702219 9 23 C8.01 23.66 7.02 24.32 6 25 C0.69949058 19.66726864 -8 9.98258556 -8 2 C-8.66 1.67 -9.32 1.34 -10 1 C-6.52674819 -0.1577506 -3.63932552 -0.06866652 0 0 Z " fill="#AA3B16" transform="translate(105,169)"/>
<path d="M0 0 C4.08248404 2.01031411 8.06999126 4.47128979 11 8 C11 8.99 11 9.98 11 11 C8.0342662 10.57632374 6.10852001 10.06956411 3.5625 8.4375 C0.35462318 6.63795935 -1.35421272 6.60889828 -5 7 C-7.77636677 8.70247889 -7.77636677 8.70247889 -10.25 11 C-14.83333333 15 -14.83333333 15 -17 15 C-17.3398504 11.80763476 -17.33091666 10.43624405 -15.35546875 7.83203125 C-14.64003906 7.16558594 -13.92460938 6.49914062 -13.1875 5.8125 C-12.12595703 4.80123047 -12.12595703 4.80123047 -11.04296875 3.76953125 C-7.1894144 0.43174899 -5.0864087 -0.67178983 0 0 Z " fill="#896558" transform="translate(93,93)"/>
<path d="M0 0 C0.33 0 0.66 0 1 0 C1.05534912 0.56396484 1.11069824 1.12792969 1.16772461 1.70898438 C1.423235 4.30609726 1.680358 6.90304817 1.9375 9.5 C2.02451172 10.386875 2.11152344 11.27375 2.20117188 12.1875 C2.72553092 17.46993182 3.31735538 22.73564146 4 28 C7.465 27.505 7.465 27.505 11 27 C10.855625 26.39671875 10.71125 25.7934375 10.5625 25.171875 C10.376875 24.37265625 10.19125 23.5734375 10 22.75 C9.814375 21.96109375 9.62875 21.1721875 9.4375 20.359375 C9 18 9 18 9 14 C9.804375 13.87625 10.60875 13.7525 11.4375 13.625 C12.283125 13.41875 13.12875 13.2125 14 13 C14.33 12.34 14.66 11.68 15 11 C15 11.99 15 12.98 15 14 C13.68 14.33 12.36 14.66 11 15 C11.144375 15.60328125 11.28875 16.2065625 11.4375 16.828125 C11.623125 17.62734375 11.80875 18.4265625 12 19.25 C12.185625 20.03890625 12.37125 20.8278125 12.5625 21.640625 C13 24 13 24 13 28 C9.52674819 29.1577506 6.63932552 29.06866652 3 29 C2.34 26.69 1.68 24.38 1 22 C0.67 22 0.34 22 0 22 C-0.15855469 22.80824219 -0.31710938 23.61648437 -0.48046875 24.44921875 C-2.83770043 35.24560031 -2.83770043 35.24560031 -8 39 C-10.29776516 40.43789462 -12.60039346 41.72962007 -15 43 C-15 42.01 -15 41.02 -15 40 C-13.09967469 38.68195965 -11.10774029 37.70990222 -9.04296875 36.671875 C-2.59116987 31.392009 -2.80335249 21.20016063 -1.8125 13.5625 C-1.63525391 12.25861328 -1.45800781 10.95472656 -1.27539062 9.61132812 C-0.8413268 6.40864102 -0.41649552 3.20501099 0 0 Z " fill="#62382E" transform="translate(192,121)"/>
<path d="M0 0 C0.66 0.66 1.32 1.32 2 2 C-4.78232975 11.37489266 -12.35139083 19.56759389 -22 26 C-17.05 26 -12.1 26 -7 26 C-9.34632534 28.34632534 -9.845702 28.26167051 -13.02734375 28.34375 C-13.81947266 28.37339844 -14.61160156 28.40304688 -15.42773438 28.43359375 C-16.25595703 28.45550781 -17.08417969 28.47742188 -17.9375 28.5 C-19.57186701 28.54344682 -21.20603966 28.59519802 -22.83984375 28.65625 C-23.92833618 28.68428711 -23.92833618 28.68428711 -25.03881836 28.71289062 C-27.31972156 28.90380137 -27.31972156 28.90380137 -30 31 C-32.89475298 31.19508742 -35.67076811 31.27879733 -38.5625 31.25 C-39.73329102 31.26160156 -39.73329102 31.26160156 -40.92773438 31.2734375 C-46.74664502 31.25335498 -46.74664502 31.25335498 -49 29 C-51.85644346 28.61740179 -54.68904624 28.49341762 -57.56640625 28.34375 C-58.36949219 28.2303125 -59.17257813 28.116875 -60 28 C-60.33 27.34 -60.66 26.68 -61 26 C-57.37 26 -53.74 26 -50 26 C-49.67 25.34 -49.34 24.68 -49 24 C-48.34 25.65 -47.68 27.3 -47 29 C-34.22562648 30.09943379 -27.23378128 27.82397176 -17.09375 19.66015625 C-10.70406886 14.10429339 -3.83726164 7.67452328 0 0 Z " fill="#52281C" transform="translate(166,200)"/>
<path d="M0 0 C12.18138345 0.68494216 24.18922067 1.69461153 36.125 4.3125 C37.02943848 4.50094482 37.93387695 4.68938965 38.86572266 4.88354492 C44.49283635 6.20271591 47.86013329 7.94835996 52 12 C51.34 12.66 50.68 13.32 50 14 C49.16339844 13.38382813 48.32679688 12.76765625 47.46484375 12.1328125 C34.05817973 3.22642464 12.7810766 3.81675581 -2.70117188 3.34106445 C-7.55392553 3.1869396 -12.22754142 2.98712391 -17 2 C-17 1.67 -17 1.34 -17 1 C-14.72923158 0.97300275 -12.45837179 0.95360547 -10.1875 0.9375 C-8.92292969 0.92589844 -7.65835938 0.91429687 -6.35546875 0.90234375 C-3 1 -3 1 0 2 C0 1.34 0 0.68 0 0 Z " fill="#6C4431" transform="translate(131,53)"/>
<path d="M0 0 C1 3 1 3 -0.15234375 5.3828125 C-8.91723756 18.84660999 -19.33822569 27.63585781 -32.4375 36.68359375 C-34.62028528 38.52259035 -34.70142903 40.2382185 -35 43 C-35.66 42.34 -36.32 41.68 -37 41 C-36.89847204 37.59881342 -36.26948193 36.27693992 -33.8828125 33.82421875 C-32.97273438 33.11910156 -32.06265625 32.41398437 -31.125 31.6875 C-30.13242188 30.90761719 -29.13984375 30.12773437 -28.1171875 29.32421875 C-25.20195307 27.15057905 -22.23722896 25.07285555 -19.25 23 C-11.74625291 17.6020053 -7.19543618 10.91321243 -3.04296875 2.75 C-2 1 -2 1 0 0 Z " fill="#532C1C" transform="translate(147,172)"/>
<path d="M0 0 C0 0.99 0 1.98 0 3 C-1.66666667 4.66666667 -3.33333333 6.33333333 -5 8 C-6.30832884 10.1074279 -7.52271409 12.23802187 -8.69140625 14.42578125 C-9.12324219 14.94527344 -9.55507812 15.46476562 -10 16 C-11.32 16 -12.64 16 -14 16 C-14.08107583 14.06318839 -14.13922475 12.1254066 -14.1875 10.1875 C-14.22230469 9.10855469 -14.25710937 8.02960938 -14.29296875 6.91796875 C-14 4 -14 4 -12.59765625 2.15625 C-8.7720004 -0.61243981 -4.56792089 -0.08784463 0 0 Z " fill="#FCF5FA" transform="translate(83,71)"/>
<path d="M0 0 C2.90364659 2.90364659 3.19068215 5.55053723 3.3125 9.5 C3.27330416 16.16329363 0.9536747 22.09265061 -2 28 C-1.34 28 -0.68 28 0 28 C-0.66 29.32 -1.32 30.64 -2 32 C-2.66 32 -3.32 32 -4 32 C-3.34 32.45375 -2.68 32.9075 -2 33.375 C1.0151012 37.33232033 0.33045517 41.19004145 0 46 C-0.33 44.68 -0.66 43.36 -1 42 C-1.66 42 -2.32 42 -3 42 C-3.061875 41.071875 -3.061875 41.071875 -3.125 40.125 C-3.41375 39.42375 -3.7025 38.7225 -4 38 C-6.99615946 36.6954344 -6.99615946 36.6954344 -10 36 C-9.34 35.01 -8.68 34.02 -8 33 C-8 32.01 -8 31.02 -8 30 C-7.236875 29.278125 -6.47375 28.55625 -5.6875 27.8125 C1.1135469 20.69512534 0.30672531 12.65239421 0.10546875 3.4375 C0.05326172 1.7359375 0.05326172 1.7359375 0 0 Z " fill="#944A27" transform="translate(177,134)"/>
<path d="M0 0 C0.99 0.33 1.98 0.66 3 1 C-3.60545622 12.32765471 -10.01929219 22.48054561 -21.22265625 29.81640625 C-29.47615431 34.70865806 -29.47615431 34.70865806 -33.80078125 42.65234375 C-33.52449661 45.95699506 -33.01653525 48.84874071 -32 52 C-35.57011026 48.267612 -36.10913442 43.9050011 -37 39 C-35.37493148 37.69609126 -33.74967456 36.39241672 -32.12353516 35.08984375 C-30.74030663 33.98090147 -29.35848697 32.87019974 -27.97802734 31.7578125 C-24.42345768 28.90144694 -20.83549292 26.15224182 -17.125 23.5 C-9.39665538 17.52477703 -3.91347615 8.84785911 0 0 Z " fill="#F2EA9E" transform="translate(149,171)"/>
<path d="M0 0 C2.45823172 3.68734758 3.01242616 6.69699971 4 11 C4.99 10.01 5.98 9.02 7 8 C8.98 12.29 10.96 16.58 13 21 C12.01 21.99 11.02 22.98 10 24 C9.01 24 8.02 24 7 24 C7.144375 24.60328125 7.28875 25.2065625 7.4375 25.828125 C7.623125 26.62734375 7.80875 27.4265625 8 28.25 C8.185625 29.03890625 8.37125 29.8278125 8.5625 30.640625 C9 33 9 33 9 37 C8.01 36.67 7.02 36.34 6 36 C6.495 35.505 6.495 35.505 7 35 C6.67186152 33.16424961 6.26189187 31.3430618 5.8203125 29.53125 C5.55089844 28.40203125 5.28148437 27.2728125 5.00390625 26.109375 C4.71386719 24.91828125 4.42382812 23.7271875 4.125 22.5 C2.29913049 14.99642667 0.64207968 7.70495612 0 0 Z " fill="#E6898B" transform="translate(194,111)"/>
<path d="M0 0 C1.39973797 0.00502803 2.7994777 0.00958862 4.19921875 0.01367188 C7.59119169 0.02536833 10.98307233 0.04175914 14.375 0.0625 C14.375 0.3925 14.375 0.7225 14.375 1.0625 C13.34282349 1.08437378 13.34282349 1.08437378 12.28979492 1.10668945 C-8.97066086 1.60728925 -30.74294104 2.68522797 -50.625 11.0625 C-50.625 12.3825 -50.625 13.7025 -50.625 15.0625 C-51.615 15.0625 -52.605 15.0625 -53.625 15.0625 C-53.6875 12.3125 -53.6875 12.3125 -52.625 9.0625 C-39.87970197 -1.11988484 -15.20228811 -0.09580515 0 0 Z " fill="#F5ED9C" transform="translate(125.625,55.9375)"/>
<path d="M0 0 C5.75 0.875 5.75 0.875 8 2 C9.53668865 2.22467831 11.07968054 2.40796805 12.625 2.5625 C13.44226563 2.64628906 14.25953125 2.73007813 15.1015625 2.81640625 C15.72804688 2.87699219 16.35453125 2.93757812 17 3 C14.31935789 5.98162648 11.15182515 7.99718996 7.8125 10.1875 C6.72582031 10.90292969 5.63914062 11.61835938 4.51953125 12.35546875 C3.68808594 12.89816406 2.85664062 13.44085938 2 14 C0 13 0 13 -1 10 C-0.01 9.67 0.98 9.34 2 9 C1.34 8.01 0.68 7.02 0 6 C-0.125 2.8125 -0.125 2.8125 0 0 Z " fill="#F9C360" transform="translate(111,176)"/>
<path d="M0 0 C3.89979817 0.59087851 6.17316128 2.47527059 9.1875 4.9375 C10.06792969 5.64777344 10.94835937 6.35804687 11.85546875 7.08984375 C14 9 14 9 15 11 C15.66 10.67 16.32 10.34 17 10 C17 11.98 17 13.96 17 16 C15.989375 15.236875 14.97875 14.47375 13.9375 13.6875 C10.47656556 11.20541571 6.94975669 9.60916013 3 8 C2.28714844 7.51144531 1.57429688 7.02289063 0.83984375 6.51953125 C-2.94662333 4.4934849 -6.60046383 3.95860446 -10.8125 3.3125 C-11.60076172 3.18294922 -12.38902344 3.05339844 -13.20117188 2.91992188 C-15.13259813 2.60387031 -17.06611445 2.30063711 -19 2 C-19 1.67 -19 1.34 -19 1 C-12.34949576 0.75008544 -6.43013467 1.26044666 0 3 C0 2.01 0 1.02 0 0 Z " fill="#CDA35B" transform="translate(176,67)"/>
<path d="M0 0 C0.33 0 0.66 0 1 0 C1.21914062 1.05058594 1.43828125 2.10117188 1.6640625 3.18359375 C3.96774302 13.6304302 6.35413474 21.99696631 15.5 28.4375 C18.87534577 30.49925943 22.146064 32.01181128 26 33 C26 33.99 26 34.98 26 36 C15.40657451 32.89259519 7.65446285 27.68527587 1.82421875 18.05859375 C-0.71777356 12.28790978 -0.27840052 6.18667817 0 0 Z " fill="#512D21" transform="translate(63,132)"/>
<path d="M0 0 C0.33 0 0.66 0 1 0 C1.41561297 15.35459043 1.41561297 15.35459043 -1 20 C-4.13247485 22.68576629 -7.45020348 24.90440361 -11 27 C-11.57282715 27.35650635 -12.1456543 27.7130127 -12.73583984 28.08032227 C-15.81684409 29.33179337 -18.41443673 29.22443477 -21.734375 29.1953125 C-23.02988281 29.18886719 -24.32539063 29.18242187 -25.66015625 29.17578125 C-27.02344019 29.15907193 -28.38672144 29.14214206 -29.75 29.125 C-31.12889985 29.1149634 -32.50780665 29.10583873 -33.88671875 29.09765625 C-37.25798882 29.07408093 -40.62890636 29.0411727 -44 29 C-44 28.67 -44 28.34 -44 28 C-43.21987549 28.01160156 -42.43975098 28.02320313 -41.63598633 28.03515625 C-20.63330838 28.82240261 -20.63330838 28.82240261 -3 19 C-1.64560332 16.29120665 -1.93498549 13.99066732 -2 11 C-2.83144531 11.45052734 -2.83144531 11.45052734 -3.6796875 11.91015625 C-4.40414062 12.29042969 -5.12859375 12.67070312 -5.875 13.0625 C-6.59429687 13.44535156 -7.31359375 13.82820312 -8.0546875 14.22265625 C-8.69664062 14.47917969 -9.33859375 14.73570312 -10 15 C-10.66 14.67 -11.32 14.34 -12 14 C-11.30132812 13.6596875 -10.60265625 13.319375 -9.8828125 12.96875 C-4.53264565 10.31261513 -4.53264565 10.31261513 -0.890625 5.8203125 C-0.27479204 3.40754739 -0.27479204 3.40754739 0 0 Z " fill="#512C24" transform="translate(172,211)"/>
<path d="M0 0 C7.18015666 0.97911227 7.18015666 0.97911227 10 3 C10.828125 5.8203125 10.828125 5.8203125 11.25 9.125 C11.39953125 10.22070312 11.5490625 11.31640625 11.703125 12.4453125 C11.80109375 13.28835937 11.8990625 14.13140625 12 15 C11.01 15.33 10.02 15.66 9 16 C5.7264182 12.36268689 0 5.19834252 0 0 Z " fill="#FAC862" transform="translate(99,170)"/>
<path d="M0 0 C2.82012894 1.11095989 5.56906722 2.26842793 8.3125 3.5625 C12.37563426 5.14643369 15.67970959 5.62102716 20 6 C20 6.99 20 7.98 20 9 C17.77110504 9.05428973 15.54182529 9.09292338 13.3125 9.125 C11.45044922 9.15980469 11.45044922 9.15980469 9.55078125 9.1953125 C6.18762143 9.01032021 4.0014413 8.45767895 1 7 C0.67 4.69 0.34 2.38 0 0 Z " fill="#F2C66D" transform="translate(94,216)"/>
<path d="M0 0 C0 0.99 0 1.98 0 3 C0.15127402 4.56406528 0.31902522 6.12659252 0.5 7.6875 C0.5928125 8.49574219 0.685625 9.30398437 0.78125 10.13671875 C0.8534375 10.75160156 0.925625 11.36648437 1 12 C-2.28519475 13.09506492 -4.73663415 13.09960608 -8.1875 13.0625 C-9.81751953 13.04896484 -9.81751953 13.04896484 -11.48046875 13.03515625 C-12.31191406 13.02355469 -13.14335937 13.01195312 -14 13 C-10.38972129 9.27690009 -6.59471674 5.84505583 -2.671875 2.453125 C-1.75931754 1.65996758 -0.85494439 0.85494439 0 0 Z " fill="#CE9269" transform="translate(157,214)"/>
<path d="M0 0 C9.85173427 0.66134327 16.1474068 2.86186826 23.4375 9.4375 C23.97028564 9.91622559 24.50307129 10.39495117 25.05200195 10.88818359 C27.71095658 13.39503791 29.65488768 15.25685864 30 19 C29.01 18.13375 28.02 17.2675 27 16.375 C25.66744225 15.24908143 24.33408238 14.12411164 23 13 C22.42121094 12.48566406 21.84242188 11.97132812 21.24609375 11.44140625 C16.00043369 7.0794643 10.2946427 5.11918644 3.87890625 3.078125 C1 2 1 2 0 0 Z " fill="#F0E89C" transform="translate(162,60)"/>
<path d="M0 0 C1.41224843 2.82449685 0.33768612 4.61335218 -0.44824219 7.53515625 C-1.51261477 12.28998172 -1.75476655 17.15054877 -2.125 22 C-2.21136719 23.06089844 -2.29773438 24.12179688 -2.38671875 25.21484375 C-2.59709469 27.80948029 -2.8013734 30.4044421 -3 33 C-4.66296832 30.1054135 -5.22839151 28.21476799 -4.9765625 24.890625 C-4.925 24.13652344 -4.8734375 23.38242188 -4.8203125 22.60546875 C-4.75585938 21.82816406 -4.69140625 21.05085938 -4.625 20.25 C-4.56828125 19.45722656 -4.5115625 18.66445312 -4.453125 17.84765625 C-4.31216305 15.89768265 -4.1574288 13.94871329 -4 12 C-5.32 14.31 -6.64 16.62 -8 19 C-8.66 19 -9.32 19 -10 19 C-8.65692112 14.69310762 -7.01109126 10.72476571 -5 6.6875 C-4.484375 5.63949219 -3.96875 4.59148437 -3.4375 3.51171875 C-2 1 -2 1 0 0 Z " fill="#623C31" transform="translate(177,182)"/>
<path d="M0 0 C10.395 0.99 10.395 0.99 21 2 C21 2.66 21 3.32 21 4 C20.27296875 3.95359375 19.5459375 3.9071875 18.796875 3.859375 C11.68153297 3.60395247 6.14467046 4.58211807 -0.50390625 7.125 C-3 8 -3 8 -6 8 C-6 7.34 -6 6.68 -6 6 C-3.03 5.01 -0.06 4.02 3 3 C2.01 2.67 1.02 2.34 0 2 C0 1.34 0 0.68 0 0 Z " fill="#481F15" transform="translate(89,166)"/>
<path d="M0 0 C5.33236275 1.30057628 9.42598654 3.8444163 13 8 C13 8.99 13 9.98 13 11 C9.2397015 10.41892368 6.46964968 9.34800504 3.1875 7.4375 C2.39730469 6.98246094 1.60710937 6.52742188 0.79296875 6.05859375 C0.20128906 5.70925781 -0.39039062 5.35992187 -1 5 C-0.67 3.35 -0.34 1.7 0 0 Z " fill="#64392D" transform="translate(91,93)"/>
<path d="M0 0 C1.875 0.25 1.875 0.25 4 1 C5.25 3.0625 5.25 3.0625 6 5 C5.34 5 4.68 5 4 5 C4 4.34 4 3.68 4 3 C2.04105639 3.11306697 2.04105639 3.11306697 0 4 C-3.96181776 12.10890038 -3.35620098 20.54539648 -1 29 C-0.34 29 0.32 29 1 29 C1 29.66 1 30.32 1 31 C-1.8940526 30.0353158 -2.83997386 29.31205098 -4.25 26.5625 C-5.98384027 18.3267587 -5.49581702 10.69721179 -2 3 C-1.34 2.01 -0.68 1.02 0 0 Z " fill="#F0E597" transform="translate(114,23)"/>
<path d="M0 0 C1.8984375 0.296875 1.8984375 0.296875 4 1 C5.625 4.25 5.625 4.25 7 8 C7.391875 8.969375 7.78375 9.93875 8.1875 10.9375 C8.455625 11.618125 8.72375 12.29875 9 13 C6.06799526 10.14723863 3.35684596 7.34920216 1 4 C0.20602761 5.24853673 -0.58507217 6.49890043 -1.375 7.75 C-1.81585938 8.44609375 -2.25671875 9.1421875 -2.7109375 9.859375 C-3.91880906 11.86517383 -4.98387737 13.89178296 -6 16 C-6.66 15.67 -7.32 15.34 -8 15 C-7.4520917 10.7170548 -5.97567196 8.14864359 -3.4375 4.6875 C-2.79683594 3.80449219 -2.15617187 2.92148438 -1.49609375 2.01171875 C-0.75552734 1.01591797 -0.75552734 1.01591797 0 0 Z " fill="#814026" transform="translate(81,173)"/>
<path d="M0 0 C0.99 0 1.98 0 3 0 C3.33675279 2.89547264 3.66951734 5.79131072 4 8.6875 C4.09539062 9.50412109 4.19078125 10.32074219 4.2890625 11.16210938 C4.73870522 15.12860052 5.13034543 19.00002463 5 23 C1.75990486 20.83993657 1.56922121 20.65636566 0.8125 17.125 C-0.30997577 11.43840789 -0.17577033 5.77112591 0 0 Z " fill="#BC8B8E" transform="translate(195,95)"/>
<path d="M0 0 C1.5 1.375 1.5 1.375 3 3 C3 3.66 3 4.32 3 5 C5.37531394 5.0543965 7.74935883 5.09385864 10.125 5.125 C10.79015625 5.14175781 11.4553125 5.15851563 12.140625 5.17578125 C16.49516056 5.21847278 19.95600114 4.59996217 24 3 C22.31223769 5.28344312 20.97157523 6.81391099 18.10839844 7.36230469 C15.85234472 7.46592516 13.63219122 7.44695744 11.375 7.375 C10.59898438 7.37371094 9.82296875 7.37242187 9.0234375 7.37109375 C3.28137401 7.28137401 3.28137401 7.28137401 1 5 C-1.85644346 4.61740179 -4.68904624 4.49341762 -7.56640625 4.34375 C-8.36949219 4.2303125 -9.17257813 4.116875 -10 4 C-10.33 3.34 -10.66 2.68 -11 2 C-7.37 2 -3.74 2 0 2 C0 1.34 0 0.68 0 0 Z " fill="#4A2218" transform="translate(116,224)"/>
<path d="M0 0 C0.28705165 4.97556199 0.06028734 7.14137684 -3 11 C-2.89582173 13.00339546 -2.89582173 13.00339546 -2 15 C-1.649375 15.9075 -1.29875 16.815 -0.9375 17.75 C-0.628125 18.4925 -0.31875 19.235 0 20 C-0.99 20 -1.98 20 -3 20 C-3.103125 19.401875 -3.20625 18.80375 -3.3125 18.1875 C-4.08876455 15.71756736 -5.07088921 14.67748765 -7 13 C-6.360625 11.948125 -5.72125 10.89625 -5.0625 9.8125 C-3.38245548 6.89171588 -2.41003948 4.3828257 -2 1 C-4.64 2.65 -7.28 4.3 -10 6 C-7.65701369 1.31402739 -5.4251219 -1.80837397 0 0 Z " fill="#B34D22" transform="translate(186,108)"/>
<path d="M0 0 C0.33 1.32 0.66 2.64 1 4 C-1.91708924 5.98362069 -3.12380904 5.9876191 -6.75 5.625 C-7.8225 5.41875 -8.895 5.2125 -10 5 C-10 3.68 -10 2.36 -10 1 C-6.78548731 -0.60725635 -3.56387464 -0.05748185 0 0 Z " fill="#E6A929" transform="translate(117,129)"/>
<path d="M0 0 C0.99 0.66 1.98 1.32 3 2 C1.25 5.875 1.25 5.875 -1 7 C-4.01263762 7.41081422 -6.11455633 7.57293414 -8.7265625 5.8828125 C-10.20110211 4.64587643 -11.60628788 3.32734487 -13 2 C-12.34 1.67 -11.68 1.34 -11 1 C-10.34 1.33 -9.68 1.66 -9 2 C-4.94857881 2.25860135 -3.45662331 2.30441554 0 0 Z " fill="#E7904B" transform="translate(108,191)"/>
<path d="M0 0 C4.703153 1.3832803 8.10193812 4.08612262 11 8 C11 8.99 11 9.98 11 11 C8.05574183 11.24535485 6.34230436 11.17577792 3.6875 9.8125 C2 8 2 8 1.875 5.5 C1.91625 4.675 1.9575 3.85 2 3 C1.34 2.01 0.68 1.02 0 0 Z " fill="#51281C" transform="translate(153,97)"/>
<path d="M0 0 C0.66 0 1.32 0 2 0 C1.67257813 0.96035156 1.34515625 1.92070313 1.0078125 2.91015625 C-0.2840196 7.43156859 -0.22283164 11.76792046 -0.125 16.4375 C-0.11146484 17.67790039 -0.11146484 17.67790039 -0.09765625 18.94335938 C-0.07431512 20.96236708 -0.03845288 22.98122356 0 25 C-3.63435641 21.36564359 -3.19210386 17.53652294 -3.25 12.625 C-3.27578125 11.31789062 -3.3015625 10.01078125 -3.328125 8.6640625 C-2.98814561 4.86762601 -2.35560734 2.96166166 0 0 Z " fill="#F5EB9A" transform="translate(68,122)"/>
<path d="M0 0 C1.65 0 3.3 0 5 0 C5.40021703 7.47071785 4.26644737 12.89172932 -0.1875 19 C-0.785625 19.66 -1.38375 20.32 -2 21 C-2.99 20.67 -3.98 20.34 -5 20 C-4.59007812 19.46632813 -4.18015625 18.93265625 -3.7578125 18.3828125 C0.33187654 12.72769225 2.16257124 7.91600651 3 1 C2.01 0.67 1.02 0.34 0 0 Z " fill="#4F291D" transform="translate(133,34)"/>
<path d="M0 0 C4.98782753 2.24676916 8.88563411 5.49158461 12 10 C12.64637971 13.44735846 12.51026376 16.54154565 12 20 C10.70391053 19.06862408 9.41328368 18.1296434 8.125 17.1875 C7.40570313 16.66542969 6.68640625 16.14335938 5.9453125 15.60546875 C4 14 4 14 2 11 C5.37503669 12.1858237 7.64722731 13.27573689 10 16 C10.42020314 13.72223063 10.42020314 13.72223063 10 11 C7.823544 8.25566458 7.823544 8.25566458 5 5.75 C3.32406355 4.17648189 1.65481577 2.5957152 0 1 C0 0.67 0 0.34 0 0 Z " fill="#512B1E" transform="translate(182,66)"/>
<path d="M0 0 C5.58333333 1.45652174 5.58333333 1.45652174 7.4375 3.875 C8.08353007 6.31555804 7.84051229 7.64656559 7 10 C0.125 6.25 0.125 6.25 -1 4 C-0.5625 1.875 -0.5625 1.875 0 0 Z " fill="#6B3E32" transform="translate(148,94)"/>
<path d="M0 0 C0 0.33 0 0.66 0 1 C-1.65 1.33 -3.3 1.66 -5 2 C-4.6390625 2.68707031 -4.278125 3.37414062 -3.90625 4.08203125 C-3.21015625 5.43361328 -3.21015625 5.43361328 -2.5 6.8125 C-2.0359375 7.70582031 -1.571875 8.59914062 -1.09375 9.51953125 C0 12 0 12 0 15 C-3 14 -3 14 -4.38671875 11.78515625 C-4.81597656 10.88667969 -5.24523437 9.98820313 -5.6875 9.0625 C-6.12449219 8.16660156 -6.56148438 7.27070313 -7.01171875 6.34765625 C-8 4 -8 4 -8 2 C-8.66 1.67 -9.32 1.34 -10 1 C-6.52674819 -0.1577506 -3.63932552 -0.06866652 0 0 Z " fill="#A5421C" transform="translate(105,169)"/>
<path d="M0 0 C0.33 0 0.66 0 1 0 C1 2.64 1 5.28 1 8 C-3.17737474 9.59138085 -6.53160785 10.21278058 -11 10 C-11 9.67 -11 9.34 -11 9 C-8.03 8.01 -5.06 7.02 -2 6 C-6.455 6.495 -6.455 6.495 -11 7 C-7.63576723 4.03947516 -4.30840713 3.07710178 0 2 C0 1.34 0 0.68 0 0 Z " fill="#5D2C12" transform="translate(121,130)"/>
<path d="M0 0 C0.33 0 0.66 0 1 0 C1 5.61 1 11.22 1 17 C-0.98 16.01 -2.96 15.02 -5 14 C-5 15.65 -5 17.3 -5 19 C-5.33 19 -5.66 19 -6 19 C-6 16.69 -6 14.38 -6 12 C-3.525 12.495 -3.525 12.495 -1 13 C-1.01160156 12.14535156 -1.02320312 11.29070312 -1.03515625 10.41015625 C-1.04417969 9.30542969 -1.05320312 8.20070313 -1.0625 7.0625 C-1.07410156 5.96035156 -1.08570312 4.85820313 -1.09765625 3.72265625 C-1 1 -1 1 0 0 Z " fill="#4B2319" transform="translate(68,95)"/>
<path d="M0 0 C2.64 0 5.28 0 8 0 C6.58911589 3.30653354 4.94468631 5.1547817 2.1875 7.4375 C-1.0404113 10.16564361 -4.05893125 12.96702285 -7 16 C-5.56053753 12.76484444 -3.75526416 10.42295431 -1.375 7.8125 C0.92718896 5.70107401 0.92718896 5.70107401 2 3 C1.34 2.01 0.68 1.02 0 0 Z " fill="#FACFD8" transform="translate(82,70)"/>
<path d="M0 0 C0.99 0.33 1.98 0.66 3 1 C3.6875 3.0625 3.6875 3.0625 4 5 C4.66 5 5.32 5 6 5 C6.33 7.31 6.66 9.62 7 12 C6.566875 11.401875 6.13375 10.80375 5.6875 10.1875 C4.22538761 8.29216913 2.72949773 6.6471407 1 5 C0.731875 5.928125 0.46375 6.85625 0.1875 7.8125 C-0.94480421 10.85184289 -1.69900511 11.90073617 -4 14 C-3.69255859 13.11248047 -3.69255859 13.11248047 -3.37890625 12.20703125 C-2.0002429 8.16339184 -0.68249153 4.23144751 0 0 Z " fill="#7D3A22" transform="translate(170,171)"/>
<path d="M0 0 C5 2 10 4 15 6 C15 6.99 15 7.98 15 9 C9.39356295 7.35544513 4.60506555 5.66043672 0 2 C0 1.34 0 0.68 0 0 Z " fill="#593427" transform="translate(74,159)"/>
<path d="M0 0 C0.66 0.33 1.32 0.66 2 1 C0.7934375 1.5878125 0.7934375 1.5878125 -0.4375 2.1875 C-3.23064738 3.76948191 -3.23064738 3.76948191 -3.8125 6.6875 C-3.874375 7.450625 -3.93625 8.21375 -4 9 C-5.98 9.33 -7.96 9.66 -10 10 C-9.66960927 6.91635318 -9.02342865 6.02152903 -6.6875 3.875 C-2.4836272 0.94206549 -2.4836272 0.94206549 0 0 Z " fill="#50291C" transform="translate(140,95)"/>
<path d="M0 0 C8.62659635 1.30800378 16.16084829 6.83264093 23 12 C22.34 12.66 21.68 13.32 21 14 C20.154375 13.39671875 19.30875 12.7934375 18.4375 12.171875 C12.471079 7.95464217 6.68633868 4.01540764 0 1 C0 0.67 0 0.34 0 0 Z " fill="#643422" transform="translate(170,87)"/>
<path d="M0 0 C0.99 0.33 1.98 0.66 3 1 C2.45730469 1.45890625 1.91460937 1.9178125 1.35546875 2.390625 C0.64003906 3.00421875 -0.07539062 3.6178125 -0.8125 4.25 C-1.52019531 4.85328125 -2.22789063 5.4565625 -2.95703125 6.078125 C-6.14962947 9.081487 -8.22122154 11.63884061 -9 16 C-10.32 15.67 -11.64 15.34 -13 15 C-12.34 15 -11.68 15 -11 15 C-10.79375 14.34 -10.5875 13.68 -10.375 13 C-7.98768864 7.79132066 -4.78619079 3.19079386 0 0 Z " fill="#E06D73" transform="translate(84,72)"/>
<path d="M0 0 C-1.51934706 3.03869411 -3.98004772 3.64410306 -7 5 C-7.66 5 -8.32 5 -9 5 C-9 6.32 -9 7.64 -9 9 C-9.99 9 -10.98 9 -12 9 C-12.0625 6.25 -12.0625 6.25 -11 3 C-3.68571429 -1.84285714 -3.68571429 -1.84285714 0 0 Z " fill="#EAE398" transform="translate(84,62)"/>
<path d="M0 0 C0 3 0 3 -1 5 C0.65 4.34 2.3 3.68 4 3 C-0.43076923 8.78461538 -0.43076923 8.78461538 -3.3125 9.875 C-3.869375 9.91625 -4.42625 9.9575 -5 10 C-5.3125 7.8125 -5.3125 7.8125 -5 5 C-2.5 2.1875 -2.5 2.1875 0 0 Z " fill="#562E1F" transform="translate(81,98)"/>
<path d="M0 0 C0.66 0.66 1.32 1.32 2 2 C1.5359375 2.9590625 1.5359375 2.9590625 1.0625 3.9375 C-0.31935403 7.92049104 -0.6536543 11.81650849 -1 16 C-0.34 16.33 0.32 16.66 1 17 C0.34 19.31 -0.32 21.62 -1 24 C-1.33 24 -1.66 24 -2 24 C-2.05819424 20.75007554 -2.09366116 17.50028565 -2.125 14.25 C-2.14175781 13.32960938 -2.15851563 12.40921875 -2.17578125 11.4609375 C-2.18222656 10.57148437 -2.18867187 9.68203125 -2.1953125 8.765625 C-2.20578613 7.94868164 -2.21625977 7.13173828 -2.22705078 6.29003906 C-1.97829916 3.78112482 -1.25700129 2.16604375 0 0 Z " fill="#5A3831" transform="translate(69,72)"/>
<path d="M0 0 C3.66060821 0.58536753 5.54535164 2.083239 8.25 4.5625 C8.95640625 5.20316406 9.6628125 5.84382813 10.390625 6.50390625 C10.92171875 6.99761719 11.4528125 7.49132812 12 8 C11.67 9.32 11.34 10.64 11 12 C10.37351563 11.36191406 9.74703125 10.72382812 9.1015625 10.06640625 C8.28429687 9.24011719 7.46703125 8.41382812 6.625 7.5625 C5.81289062 6.73878906 5.00078125 5.91507812 4.1640625 5.06640625 C2.17651485 2.96565328 2.17651485 2.96565328 0 2 C0 1.34 0 0.68 0 0 Z " fill="#EFDCDE" transform="translate(181,77)"/>
<path d="M0 0 C4.52539525 1.15052422 6.34564442 2.75866176 9.6875 5.9375 C9.0275 6.5975 8.3675 7.2575 7.6875 7.9375 C6.8625 7.31875 6.0375 6.7 5.1875 6.0625 C1.5362774 3.59923499 -2.02612502 2.8243362 -6.3125 1.9375 C-3.3125 -0.0625 -3.3125 -0.0625 0 0 Z " fill="#603F2F" transform="translate(173.3125,59.0625)"/>
<path d="M0 0 C10.16236162 0.84132841 10.16236162 0.84132841 14 3 C14.33 3.99 14.66 4.98 15 6 C13.24859857 5.54705135 11.49892656 5.08741252 9.75 4.625 C8.77546875 4.36976562 7.8009375 4.11453125 6.796875 3.8515625 C4.34162697 3.10401491 2.24382595 2.22876183 0 1 C0 0.67 0 0.34 0 0 Z " fill="#FBF5A3" transform="translate(162,60)"/>
<path d="M0 0 C3.04049801 3.64859761 4.96518762 7.7444533 7 12 C5.14453125 11.7421875 5.14453125 11.7421875 3 11 C1.69921875 9.2578125 1.69921875 9.2578125 0.6875 7.125 C0.34074219 6.42632812 -0.00601563 5.72765625 -0.36328125 5.0078125 C-1 3 -1 3 0 0 Z " fill="#4F2A20" transform="translate(74,187)"/>
<path d="M0 0 C1.76141726 2.64212589 3.23818698 5.2427764 4.6875 8.0625 C5.14511719 8.94035156 5.60273438 9.81820312 6.07421875 10.72265625 C6.37972656 11.47417969 6.68523437 12.22570312 7 13 C6.67 13.66 6.34 14.32 6 15 C2.53274483 13.26637241 1.34259637 9.50993051 0 6 C-0.25 2.5 -0.25 2.5 0 0 Z " fill="#BB9092" transform="translate(200,119)"/>
<path d="M0 0 C1.5625 1.8125 1.5625 1.8125 3 4 C2.67 4.99 2.34 5.98 2 7 C-0.97 7 -3.94 7 -7 7 C-7 6.67 -7 6.34 -7 6 C-4.69 6 -2.38 6 0 6 C0 5.01 0 4.02 0 3 C-2.64 3 -5.28 3 -8 3 C-8 2.67 -8 2.34 -8 2 C-6.865625 1.855625 -5.73125 1.71125 -4.5625 1.5625 C-1.19222799 1.38828522 -1.19222799 1.38828522 0 0 Z " fill="#8D5836" transform="translate(114,219)"/>
<path d="M0 0 C-1.45855647 3.68646141 -3.30229045 5.16143971 -6.625 7.25 C-7.44226563 7.77078125 -8.25953125 8.2915625 -9.1015625 8.828125 C-10.04128906 9.40820312 -10.04128906 9.40820312 -11 10 C-10.62207203 7.32543283 -10.20233084 6.19388186 -8.22265625 4.296875 C-7.50980469 3.78640625 -6.79695313 3.2759375 -6.0625 2.75 C-5.35222656 2.22921875 -4.64195313 1.7084375 -3.91015625 1.171875 C-2 0 -2 0 0 0 Z " fill="#5A3421" transform="translate(131,194)"/>
<path d="M0 0 C0.66 0.33 1.32 0.66 2 1 C0.515 2.485 0.515 2.485 -1 4 C1.64 4.33 4.28 4.66 7 5 C7 5.33 7 5.66 7 6 C5.25034642 6.05429959 3.50020213 6.09292823 1.75 6.125 C0.77546875 6.14820313 -0.1990625 6.17140625 -1.203125 6.1953125 C-4.0196498 5.99862781 -5.60949036 5.44568916 -8 4 C-6.71349294 3.30289269 -5.42059335 2.61757124 -4.125 1.9375 C-3.40570313 1.55464844 -2.68640625 1.17179688 -1.9453125 0.77734375 C-1.30335937 0.52082031 -0.66140625 0.26429688 0 0 Z " fill="#C67B4A" transform="translate(127,224)"/>
<path d="M0 0 C5.94 0.99 5.94 0.99 12 2 C12 2.99 12 3.98 12 5 C7.6822542 4.49202991 3.96697886 3.80317221 0 2 C0 1.34 0 0.68 0 0 Z " fill="#EA9D5D" transform="translate(102,220)"/>
<path d="M0 0 C4.20626034 1.50223584 5.73900021 4.28550034 8 8 C7.01 8 6.02 8 5 8 C0 2.65116279 0 2.65116279 0 0 Z " fill="#4C251C" transform="translate(67,151)"/>
<path d="M0 0 C2.46800047 1.15173355 4.04783565 2.04783565 6 4 C6 4.99 6 5.98 6 7 C3.5625 6.625 3.5625 6.625 1 6 C0.67 5.34 0.34 4.68 0 4 C0.66 4 1.32 4 2 4 C1.34 2.68 0.68 1.36 0 0 Z " fill="#4C251A" transform="translate(98,97)"/>
<path d="M0 0 C0 0.33 0 0.66 0 1 C-3.63 1.66 -7.26 2.32 -11 3 C-11.33 2.01 -11.66 1.02 -12 0 C-7.66726186 -0.92844389 -4.33273814 -0.92844389 0 0 Z " fill="#684838" transform="translate(96,58)"/>
<path d="M0 0 C2.12508244 3.18762365 2.5020163 5.26512223 3 9 C3.66 9 4.32 9 5 9 C5 9.66 5 10.32 5 11 C3.125 10.5 3.125 10.5 1 9 C-0.06438352 6.31953678 -0.4982544 3.8736339 -1 1 C-0.67 0.67 -0.34 0.34 0 0 Z " fill="#EBD489" transform="translate(110,43)"/>
<path d="M0 0 C-2.6860286 1.79068573 -4.6626589 2.66055791 -7.6875 3.625 C-8.49574219 3.88539063 -9.30398437 4.14578125 -10.13671875 4.4140625 C-10.75160156 4.60742188 -11.36648437 4.80078125 -12 5 C-11.67 4.01 -11.34 3.02 -11 2 C-7.24092359 0.37676246 -4.07913787 -0.23994929 0 0 Z " fill="#EDE497" transform="translate(97,171)"/>
<path d="M0 0 C-1.13499394 3.29148243 -1.99283376 3.9959869 -5.125 5.75 C-6.548125 6.36875 -6.548125 6.36875 -8 7 C-8 6.01 -8 5.02 -8 4 C-2.74285714 0 -2.74285714 0 0 0 Z " fill="#542C20" transform="translate(185,157)"/>
<path d="M0 0 C-3.51187196 2.40814077 -5.72656908 3.36629408 -10 3 C-10.33 2.34 -10.66 1.68 -11 1 C-3.375 -1.125 -3.375 -1.125 0 0 Z " fill="#D88816" transform="translate(120,136)"/>
<path d="M0 0 C0 0.66 0 1.32 0 2 C-2.97 2.66 -5.94 3.32 -9 4 C-9 3.34 -9 2.68 -9 2 C-5.62902617 0.50178941 -3.79557881 0 0 0 Z " fill="#512C23" transform="translate(92,170)"/>
<path d="M0 0 C2.875 -0.125 2.875 -0.125 6 0 C6.66 0.66 7.32 1.32 8 2 C7.625 4.125 7.625 4.125 7 6 C6.67 5.01 6.34 4.02 6 3 C2.99152582 1.77479736 2.99152582 1.77479736 0 1 C0 0.67 0 0.34 0 0 Z " fill="#E7AE63" transform="translate(167,169)"/>
<path d="M0 0 C-0.33 0.66 -0.66 1.32 -1 2 C-3.3140622 2.73075648 -5.64828869 3.40138258 -8 4 C-8 3.34 -8 2.68 -8 2 C-8.66 1.67 -9.32 1.34 -10 1 C-6.61981469 -0.04005702 -3.5219721 -0.08004482 0 0 Z " fill="#56322A" transform="translate(86,59)"/>
<path d="M0 0 C2.4750171 1.11431765 4.67883419 2.58150978 7 4 C6.67 4.66 6.34 5.32 6 6 C3.04590299 4.62845496 0.55991624 3.01136276 -2 1 C-1.34 0.67 -0.68 0.34 0 0 Z " fill="#A73F1E" transform="translate(133,179)"/>
<path d="M0 0 C0.99 0.33 1.98 0.66 3 1 C1.68 3.31 0.36 5.62 -1 8 C-1.66 7.34 -2.32 6.68 -3 6 C-2.01 4.02 -1.02 2.04 0 0 Z " fill="#ECE298" transform="translate(149,171)"/>
<path d="M0 0 C0.66 0 1.32 0 2 0 C1.67 2.31 1.34 4.62 1 7 C0.01 6.67 -0.98 6.34 -2 6 C-1.125 1.125 -1.125 1.125 0 0 Z " fill="#603E31" transform="translate(75,182)"/>
<path d="M0 0 C0 0.66 0 1.32 0 2 C-5.75 5 -5.75 5 -8 5 C-8 4.34 -8 3.68 -8 3 C-5.09451118 0.95830515 -3.59857954 0 0 0 Z " fill="#A53113" transform="translate(133,178)"/>
<path d="M0 0 C1.2065625 0.0309375 1.2065625 0.0309375 2.4375 0.0625 C2.4375 0.7225 2.4375 1.3825 2.4375 2.0625 C1.7775 2.0625 1.1175 2.0625 0.4375 2.0625 C0.4375 2.7225 0.4375 3.3825 0.4375 4.0625 C-0.5525 4.3925 -1.5425 4.7225 -2.5625 5.0625 C-3.125 3.125 -3.125 3.125 -3.5625 1.0625 C-2.5625 0.0625 -2.5625 0.0625 0 0 Z " fill="#884B18" transform="translate(120.5625,127.9375)"/>
</svg>
